<svg xmlns="http://www.w3.org/2000/svg" viewBox="0 0 1080 460"><defs><style>.cls-1{fill:#f5f3ed;}.cls-2{fill:#e3e3e3;}.cls-3{fill:#f1f1f1;}.cls-10,.cls-11,.cls-12,.cls-13,.cls-14,.cls-15,.cls-16,.cls-17,.cls-18,.cls-19,.cls-20,.cls-21,.cls-22,.cls-23,.cls-4,.cls-5,.cls-8,.cls-9{fill:none;}.cls-4,.cls-5{stroke:#fff;stroke-miterlimit:10;}.cls-21,.cls-22,.cls-23,.cls-4,.cls-7,.cls-8{stroke-width:3px;}.cls-5{stroke-width:4px;}.cls-6{fill:#717171;}.cls-7{fill:#fff;}.cls-10,.cls-11,.cls-12,.cls-13,.cls-14,.cls-15,.cls-16,.cls-17,.cls-18,.cls-19,.cls-20,.cls-7,.cls-8,.cls-9{stroke:#717171;}.cls-10,.cls-11,.cls-12,.cls-13,.cls-14,.cls-15,.cls-16,.cls-17,.cls-18,.cls-19,.cls-20,.cls-21,.cls-22,.cls-23,.cls-7,.cls-8,.cls-9{stroke-linejoin:round;}.cls-10,.cls-11,.cls-12,.cls-13,.cls-14,.cls-15,.cls-16,.cls-17,.cls-18,.cls-19,.cls-20,.cls-9{stroke-width:2px;}.cls-9{stroke-dasharray:6.06 4.04;}.cls-10{stroke-dasharray:6.06 4.04;}.cls-11{stroke-dasharray:6.18 4.12;}.cls-12{stroke-dasharray:5.94 3.96;}.cls-13{stroke-dasharray:6.7 4.46;}.cls-14{stroke-dasharray:5.85 3.9;}.cls-15{stroke-dasharray:6.11 4.07;}.cls-16{stroke-dasharray:6.9 4.6;}.cls-17{stroke-dasharray:4.72 3.15;}.cls-18,.cls-21{stroke-dasharray:5.23 3.49;}.cls-19,.cls-22{stroke-dasharray:5.11 3.41;}.cls-20,.cls-23{stroke-dasharray:5.03 3.35;}.cls-21,.cls-22,.cls-23{stroke:#717071;}</style></defs><title>Asset 12</title><g id="Layer_2" data-name="Layer 2"><g id="bass"><g id="表"><rect class="cls-1" width="1080" height="184"/><rect class="cls-2" y="184" width="160" height="276"/><rect class="cls-3" x="160" y="184" width="920" height="276"/><line class="cls-4" y1="184" x2="1080" y2="184"/><line class="cls-4" y1="225" x2="1080" y2="225"/><line class="cls-4" y1="266" x2="1080" y2="266"/><line class="cls-4" y1="307" x2="1080" y2="307"/><line class="cls-4" y1="348" x2="1080" y2="348"/><line class="cls-4" y1="415.66" x2="1080" y2="415.66"/><line class="cls-5" x1="160" x2="160" y2="460"/><line class="cls-4" x1="344" x2="344" y2="460"/><line class="cls-4" x1="528" x2="528" y2="460"/><line class="cls-4" x1="712" x2="712" y2="460"/><line class="cls-4" x1="896" x2="896" y2="460"/></g><g id="text"><path class="cls-6" d="M75.56,196a2.19,2.19,0,0,1,1.48.28,1.63,1.63,0,0,1,.6,1.36c0,.63-.14,1.25-1.22,2.55a20.53,20.53,0,0,1-4.94,4.24h5c1.54,0,2.42.54,2.42,2.44v4c0,1.88-.88,2.42-2.42,2.42h-9c-1.54,0-2.44-.5-2.44-2.42v-3.18a13.33,13.33,0,0,1-3.12,1c-1.06,0-1.42-1.24-1.42-1.86,0-.8.4-1.1,1.2-1.34a28.92,28.92,0,0,0,5.54-1.94,22.47,22.47,0,0,0-2.48-2.26,7,7,0,0,1-2.28,1,1.72,1.72,0,0,1-1.48-1.8c0-.73.48-1,1.12-1.31a13.26,13.26,0,0,0,5-3.8,1.8,1.8,0,0,1,1.62-.82c.94,0,1.72.38,1.72,1.12a1.49,1.49,0,0,1-.06.34Zm-7.32,2.58c-.62.58-.84.77-1,.93a26,26,0,0,1,2.88,2.36,12.28,12.28,0,0,0,3.36-3.09c0-.16-.14-.2-.28-.2Zm7.54,9.21a.5.5,0,0,0-.54-.56H68.62a.5.5,0,0,0-.54.56v2a.48.48,0,0,0,.54.54h6.62a.49.49,0,0,0,.54-.54Z"/><path class="cls-6" d="M86,212.21a1.24,1.24,0,0,1-1.28,1.46c-.92,0-1.4-.38-1.4-1.46v-4c-.82,1.88-1.18,2.22-1.76,2.22-.8,0-1.32-.88-1.32-1.62,0-.56.08-.68,1.14-2.2a16.71,16.71,0,0,0,1.88-4.06H81.94a1.24,1.24,0,0,1-1.46-1.3c0-1,.44-1.46,1.46-1.46h1.4v-1.62c-.38,0-1.16.16-1.5.16-1.18,0-1.18-1.17-1.18-1.39a1.15,1.15,0,0,1,1.12-1.32,19.47,19.47,0,0,0,3.24-.38c.3-.06,1.62-.42,1.9-.42.82,0,1.1.9,1.1,1.52,0,1-.52,1.16-2,1.44v2h.68a1.54,1.54,0,0,1,.74.17,12.79,12.79,0,0,0,1.84-4.26c.14-.52.3-1.12,1.26-1.12.28,0,1.64.08,1.64,1.1a8.65,8.65,0,0,1-.5,1.8H98.2c.46,0,1.28.06,1.28,1.35,0,1.13-.36,1.54-1.28,1.54H95.08v10.86c0,1.8-.26,2.38-3.1,2.38a6.66,6.66,0,0,1-1.9-.14,1.44,1.44,0,0,1-.82-1.42c0-1.52,1.12-1.52,1.48-1.52l.78,0c.28,0,.68,0,.68-.54v-9.64H90.48c-1.2,2.48-1.62,2.58-2.2,2.58a1.57,1.57,0,0,1-1.12-.46,1.6,1.6,0,0,1-.46.06H86v.12a13.43,13.43,0,0,0,1.58,2.12c.82.88.82,1,.86,1.26a19.35,19.35,0,0,0,.62-2.32c.14-.66.26-1.26,1.28-1.26.2,0,1.38,0,1.38,1.12a22.37,22.37,0,0,1-1.64,5.86c-.72,1.72-1,2.06-1.72,2.06a1.51,1.51,0,0,1-1.66-1.42c0-.38,0-.44.88-2a10.1,10.1,0,0,0,.44-1,1,1,0,0,1-.64.28c-.6,0-1-.62-1.38-1.34Zm12.12-7.86a20.16,20.16,0,0,0,1.12,4.36,4.39,4.39,0,0,1,.39,1.38,1.4,1.4,0,0,1-1.51,1.38c-1,0-1.3-.68-1.76-2.36a23.73,23.73,0,0,1-.88-5.32c0-.56.08-1,.5-1.2a2.1,2.1,0,0,1,1.16-.18C97.9,202.53,97.94,202.83,98.14,204.35Z"/><path class="cls-6" d="M65.94,240.28c1.74,0,2.66.62,2.66,2.67v8.48c0,2.12-1,2.66-2.66,2.66H54c-1.64,0-2.66-.54-2.66-2.66V243c0-2,.92-2.67,2.66-2.67h3.7A8.21,8.21,0,0,0,58,239H51.9a1.24,1.24,0,0,1-1.46-1.3c0-1,.42-1.44,1.46-1.44H68.1a1.24,1.24,0,0,1,1.46,1.3c0,1-.41,1.44-1.46,1.44H61.28a11.51,11.51,0,0,1-.38,1.3Zm-10.22,2.57h-1a.45.45,0,0,0-.48.5V251a.44.44,0,0,0,.48.5h1Zm5.8,1.36v-1.36H58.36v1.36Zm0,3.56v-1.42H58.36v1.42Zm0,2.16H58.36v1.6h3.16Zm2.74-7.08v8.68h1a.46.46,0,0,0,.5-.5v-7.68a.45.45,0,0,0-.5-.5Z"/><path class="cls-6" d="M78.74,249.71c-1.06,1.66-2.24,2.46-3.76,2.46-2.9,0-4.14-2.94-4.14-5.92,0-6.47,4.84-9.49,9.68-9.49,5.88,0,8.63,3.71,8.63,8.39,0,7.48-7,8.58-8.51,8.58a1.53,1.53,0,0,1-1.6-1.64c0-1.28.9-1.42,1.56-1.52,1.68-.26,5.2-.78,5.2-5.6,0-3.45-2-5-4.12-5.19C81.26,243.17,80.16,247.51,78.74,249.71Zm-4.82-3.44c0,1.64.62,2.46,1.24,2.46.82,0,1.4-1.26,1.84-2.46a30,30,0,0,0,1.56-6.41A6.28,6.28,0,0,0,73.92,246.27Z"/><path class="cls-6" d="M99.88,242.55h.54a1.21,1.21,0,0,1,1.3,1.34c0,.74-.24,1.48-1.3,1.48h-.54v8c0,.34,0,1.32-1.36,1.32s-1.5-.54-1.5-1.32v-8h-1.6v.38a19.94,19.94,0,0,1-.86,6.58c-.66,2-1.24,2.22-1.94,2.22s-1.72-.34-1.72-1.48a2.14,2.14,0,0,1,.34-1.1,11.48,11.48,0,0,0,1.24-6.16v-.44h-.7a1.22,1.22,0,0,1-1.3-1.34c0-.78.28-1.48,1.3-1.48h.7V239h-.42a1.22,1.22,0,0,1-1.2-1.36c0-1,.46-1.48,1.38-1.48H100c.5,0,1.38.1,1.38,1.4,0,.88-.42,1.44-1.2,1.44h-.32ZM97,239h-1.6v3.51H97Zm10,8.15a1.19,1.19,0,0,1,1-.44,1.5,1.5,0,0,1,1.5,1.62c0,.88-1.4,2.16-2.32,3-1.2,1.1-3.86,3-4.92,3a1.67,1.67,0,0,1-1.6-1.7c0-.82.56-1.1,1.26-1.44a15.75,15.75,0,0,0,3.92-2.76Zm-.9-1.52c-1,.7-2.66,1.88-3.56,1.88a1.48,1.48,0,0,1-1.4-1.6c0-.86.5-1.12,1-1.36a15.27,15.27,0,0,0,3.9-2.58c.88-.82,1-.92,1.44-.92a1.48,1.48,0,0,1,1.12.51,1.44,1.44,0,0,1,.3,1.05C109,243.47,107.12,245,106.16,245.67Zm-.3-5.69c-.86.58-2.36,1.57-3.18,1.57a1.66,1.66,0,0,1-1.44-1.73c0-.72.36-.9,1.58-1.48a11.61,11.61,0,0,0,2.74-1.8c.78-.64.92-.76,1.38-.76a1.52,1.52,0,0,1,1.52,1.56C108.46,238.1,106.76,239.36,105.86,240Z"/><path class="cls-6" d="M65.94,281.28c1.74,0,2.66.62,2.66,2.66v8.49c0,2.12-1,2.66-2.66,2.66H54c-1.64,0-2.66-.54-2.66-2.66v-8.49c0-2,.92-2.66,2.66-2.66h3.7A8.21,8.21,0,0,0,58,280H51.9a1.24,1.24,0,0,1-1.46-1.3c0-1,.42-1.44,1.46-1.44H68.1a1.24,1.24,0,0,1,1.46,1.3c0,1-.41,1.44-1.46,1.44H61.28a11.51,11.51,0,0,1-.38,1.3Zm-10.22,2.56h-1a.45.45,0,0,0-.48.5V292a.44.44,0,0,0,.48.5h1Zm5.8,1.36v-1.36H58.36v1.36Zm0,3.57v-1.42H58.36v1.42Zm0,2.16H58.36v1.6h3.16Zm2.74-7.09v8.69h1a.46.46,0,0,0,.5-.5v-7.69a.45.45,0,0,0-.5-.5Z"/><path class="cls-6" d="M78.74,290.71c-1.06,1.66-2.24,2.46-3.76,2.46-2.9,0-4.14-2.94-4.14-5.92,0-6.47,4.84-9.49,9.68-9.49,5.88,0,8.63,3.7,8.63,8.39,0,7.48-7,8.58-8.51,8.58a1.53,1.53,0,0,1-1.6-1.64c0-1.28.9-1.42,1.56-1.52,1.68-.26,5.2-.78,5.2-5.6,0-3.45-2-5-4.12-5.19C81.26,284.16,80.16,288.51,78.74,290.71Zm-4.82-3.44c0,1.64.62,2.46,1.24,2.46.82,0,1.4-1.26,1.84-2.46a30.23,30.23,0,0,0,1.56-6.41A6.28,6.28,0,0,0,73.92,287.27Z"/><path class="cls-6" d="M91.64,289.51a1.05,1.05,0,0,1-1.16-1.18c0-.89.46-1.23,1.26-1.23h1.62c.4-1.09.46-1.28,1.1-1.4a2,2,0,0,1,0-.5v-1.14a13.15,13.15,0,0,1-1.6,1.6,1.67,1.67,0,0,1-1.08.5,1.42,1.42,0,0,1-1.34-1.54c0-.54.34-.74,1.26-1.3A9.18,9.18,0,0,0,93.3,282H91.74c-.4,0-1.22,0-1.22-1.14s.6-1.12,1.22-1.12h2.68v-1.9c0-.38,0-1.26,1.32-1.26,1.14,0,1.48.4,1.48,1.26v1.9h2.4c.4,0,1.22,0,1.22,1.1S100.1,282,99.62,282H98.08a13.74,13.74,0,0,0,1.26,1.16c.48.38.5.42.58.6a15.77,15.77,0,0,0,2.3-6,1.26,1.26,0,0,1,1.44-1.14c.38,0,1.56.06,1.56,1.14a6.08,6.08,0,0,1-.34,1.58h3.28a1.28,1.28,0,0,1,1.42,1.46c0,1.5-.94,1.54-1.32,1.56a19,19,0,0,1-1.78,7.81,12.94,12.94,0,0,0,2.34,2.28,1.65,1.65,0,0,1,.72,1.3,1.77,1.77,0,0,1-1.62,1.76c-.44,0-.86-.14-1.88-1.12a12.48,12.48,0,0,1-1.36-1.54,12.5,12.5,0,0,1-2.34,2c-.82.56-1.06.6-1.4.6a1.55,1.55,0,0,1-1.42-.94,1,1,0,0,1-.7.26c-.3,0-.48-.06-1-.42-.3-.2-.86-.5-1.12-.64A9.76,9.76,0,0,1,92,295.57a1.34,1.34,0,0,1-1.24-1.42c0-.88.68-1,1.14-1.1a14.57,14.57,0,0,0,2-.54c-.24-.08-1.28-.44-1.48-.54a1,1,0,0,1-.68-.94c0-.42.16-.66.56-1.34a.71.71,0,0,0,.08-.18Zm.84-9.77c-.58,0-.7-.2-1-.78-.38-.86-.42-1-.42-1.2,0-.52.58-.92,1.32-.92a1,1,0,0,1,1,.62,3,3,0,0,1,.5,1.34C93.92,279.26,93.5,279.74,92.48,279.74Zm2.62,9.77a6,6,0,0,0-.38.92.21.21,0,0,0,.14.22c.12.06,1.08.3,1.44.42a4.23,4.23,0,0,0,.82-1.56Zm4.64-2.41c.7,0,1.3.29,1.3,1.23,0,1.18-1,1.18-1.38,1.2a5.24,5.24,0,0,1-1,2.4c1,.42,1.12.46,1.3.84l1-.66a7.93,7.93,0,0,0,2.06-1.8,14.23,14.23,0,0,1-1.28-3.87,1.44,1.44,0,0,1-1.1.57,1.68,1.68,0,0,1-1.6-1.43c-.54.12-1-.22-1.86-1.38v1c0,.53-.1,1.07-.88,1.23a1.51,1.51,0,0,1-.12.67Zm.92-9.36a3.41,3.41,0,0,1-.6,1.4,1.16,1.16,0,0,1-1.06.62c-.66,0-1.3-.38-1.3-.94,0-.28,0-.34.56-1.32a1,1,0,0,1,1-.68C100,276.82,100.66,277.18,100.66,277.74Zm3.22,4.68a.38.38,0,0,1-.06.16,15.71,15.71,0,0,0,.92,4.59,16.61,16.61,0,0,0,.7-4.75Z"/><path class="cls-6" d="M68.12,333.27a1.33,1.33,0,0,1,1.46,1.44,1.35,1.35,0,0,1-1.46,1.46H59.74c-3.54,0-4.64-1.48-5-2a9.23,9.23,0,0,1-1.46,1.76,1.6,1.6,0,0,1-1.16.54,1.8,1.8,0,0,1-1.66-1.82,1.26,1.26,0,0,1,.4-1c.3-.28,1.7-1.4,2-1.62v-3.7c0-.12,0-.53-.36-.53h-.54a1.23,1.23,0,0,1-1.38-1.36c0-1.08.4-1.56,1.48-1.56h1.24c2.08,0,2.48.4,2.48,2.46v3.69c.22,1.7,1.92,2.22,3.6,2.22ZM54.9,319.36c1.4,1.22,1.58,1.52,1.58,2.06a1.75,1.75,0,0,1-1.6,1.7c-.56,0-.72-.16-1.58-1-.5-.48-1.36-1.2-1.86-1.66a1.37,1.37,0,0,1-.56-1.1,1.7,1.7,0,0,1,1.34-1.58C52.74,317.76,53.18,317.86,54.9,319.36Zm7.86,2.42a15.4,15.4,0,0,1-2.2,8.41,7.34,7.34,0,0,1-1.74,2,1.42,1.42,0,0,1-.74.2,1.87,1.87,0,0,1-1.76-1.74,1.43,1.43,0,0,1,.44-1,10.08,10.08,0,0,0,1.5-1.83,12.93,12.93,0,0,0,1.5-6.22v-.58H58.2a1.28,1.28,0,0,1-1.48-1.34c0-1.08.48-1.5,1.48-1.5h8c2.7,0,2.7,1.74,2.7,3a68.78,68.78,0,0,1-.64,9.05c-.46,1.82-1.26,2.24-3.52,2.24-1.66,0-2.94,0-2.94-1.66a1.28,1.28,0,0,1,1.42-1.46l1.14.06c.78,0,1-.22,1.16-1.33.2-1.33.32-4.86.32-6.34,0-.42-.1-.7-.62-.7H62.76Z"/><path class="cls-6" d="M78.74,331.71c-1.06,1.66-2.24,2.46-3.76,2.46-2.9,0-4.14-2.94-4.14-5.92,0-6.47,4.84-9.49,9.68-9.49,5.88,0,8.63,3.7,8.63,8.39,0,7.48-7,8.58-8.51,8.58a1.53,1.53,0,0,1-1.6-1.64c0-1.28.9-1.42,1.56-1.52,1.68-.26,5.2-.78,5.2-5.6,0-3.45-2-5-4.12-5.19C81.26,325.16,80.16,329.51,78.74,331.71Zm-4.82-3.44c0,1.64.62,2.46,1.24,2.46.82,0,1.4-1.26,1.84-2.46a30.23,30.23,0,0,0,1.56-6.41A6.28,6.28,0,0,0,73.92,328.27Z"/><path class="cls-6" d="M91.64,330.51a1.05,1.05,0,0,1-1.16-1.18c0-.89.46-1.23,1.26-1.23h1.62c.4-1.09.46-1.28,1.1-1.4a2,2,0,0,1,0-.5v-1.14a13.15,13.15,0,0,1-1.6,1.6,1.67,1.67,0,0,1-1.08.5,1.42,1.42,0,0,1-1.34-1.54c0-.54.34-.74,1.26-1.3A9.18,9.18,0,0,0,93.3,323H91.74c-.4,0-1.22,0-1.22-1.14s.6-1.12,1.22-1.12h2.68v-1.9c0-.38,0-1.26,1.32-1.26,1.14,0,1.48.4,1.48,1.26v1.9h2.4c.4,0,1.22,0,1.22,1.1S100.1,323,99.62,323H98.08a13.74,13.74,0,0,0,1.26,1.16c.48.38.5.42.58.6a15.77,15.77,0,0,0,2.3-6,1.26,1.26,0,0,1,1.44-1.14c.38,0,1.56.06,1.56,1.14a6.08,6.08,0,0,1-.34,1.58h3.28a1.28,1.28,0,0,1,1.42,1.46c0,1.5-.94,1.54-1.32,1.56a19,19,0,0,1-1.78,7.81,12.94,12.94,0,0,0,2.34,2.28,1.65,1.65,0,0,1,.72,1.3,1.77,1.77,0,0,1-1.62,1.76c-.44,0-.86-.14-1.88-1.12a12.48,12.48,0,0,1-1.36-1.54,12.5,12.5,0,0,1-2.34,2c-.82.56-1.06.6-1.4.6a1.55,1.55,0,0,1-1.42-.94,1,1,0,0,1-.7.26c-.3,0-.48-.06-1-.42-.3-.2-.86-.5-1.12-.64A9.76,9.76,0,0,1,92,336.57a1.34,1.34,0,0,1-1.24-1.42c0-.88.68-1,1.14-1.1a14.57,14.57,0,0,0,2-.54c-.24-.08-1.28-.44-1.48-.54a1,1,0,0,1-.68-.94c0-.42.16-.66.56-1.34a.71.71,0,0,0,.08-.18Zm.84-9.77c-.58,0-.7-.2-1-.78-.38-.86-.42-1-.42-1.2,0-.52.58-.92,1.32-.92a1,1,0,0,1,1,.62,3,3,0,0,1,.5,1.34C93.92,320.26,93.5,320.74,92.48,320.74Zm2.62,9.77a6,6,0,0,0-.38.92.21.21,0,0,0,.14.22c.12.06,1.08.3,1.44.42a4.23,4.23,0,0,0,.82-1.56Zm4.64-2.41c.7,0,1.3.29,1.3,1.23,0,1.18-1,1.18-1.38,1.2a5.24,5.24,0,0,1-1,2.4c1,.42,1.12.46,1.3.84l1-.66a7.93,7.93,0,0,0,2.06-1.8,14.23,14.23,0,0,1-1.28-3.87,1.44,1.44,0,0,1-1.1.57,1.68,1.68,0,0,1-1.6-1.43c-.54.12-1-.22-1.86-1.38v1c0,.53-.1,1.07-.88,1.23a1.51,1.51,0,0,1-.12.67Zm.92-9.36a3.41,3.41,0,0,1-.6,1.4,1.16,1.16,0,0,1-1.06.62c-.66,0-1.3-.38-1.3-.94,0-.28,0-.34.56-1.32a1,1,0,0,1,1-.68C100,317.82,100.66,318.18,100.66,318.74Zm3.22,4.68a.38.38,0,0,1-.06.16,15.71,15.71,0,0,0,.92,4.59,16.61,16.61,0,0,0,.7-4.75Z"/><path class="cls-6" d="M24,364.84a1.17,1.17,0,0,1-1.16-1.3c0-1,.68-1.14,1.52-1.28a3,3,0,0,0,2.48-2.08c.26-.68.44-1.18,1.46-1.18s1.4.6,1.4,1.06v14.55c0,.68-.18,1.58-1.62,1.58-1,0-1.76-.24-1.76-1.58v-9.77Z"/><path class="cls-6" d="M44.36,372.87c.22,0,.94.06,1.18.08q.75.06,1.44.06c2.56,0,7.42-.26,7.42-5.07,0-3-2-4.12-4.32-4.12a20.67,20.67,0,0,0-6,1.08,11.26,11.26,0,0,1-2.88.8c-1.3,0-1.54-1.26-1.54-1.8,0-1.18.66-1.48,1.8-1.8a31.21,31.21,0,0,1,8.62-1.36c1.08,0,4,0,6,2.1a7.17,7.17,0,0,1,1.79,5.06,7.36,7.36,0,0,1-4.91,7.37,19.16,19.16,0,0,1-6.46.94,10.15,10.15,0,0,1-2.76-.24,1.42,1.42,0,0,1-1-1.46A1.43,1.43,0,0,1,44.36,372.87Z"/><path class="cls-6" d="M67.72,372.71c-1.06,1.66-2.24,2.46-3.76,2.46-2.9,0-4.14-2.94-4.14-5.92,0-6.47,4.84-9.49,9.68-9.49,5.88,0,8.63,3.7,8.63,8.39,0,7.48-6.95,8.58-8.51,8.58a1.53,1.53,0,0,1-1.6-1.64c0-1.28.9-1.42,1.56-1.52,1.68-.26,5.2-.78,5.2-5.6,0-3.45-2-5-4.12-5.19C70.24,366.16,69.14,370.51,67.72,372.71Zm-4.82-3.44c0,1.64.62,2.46,1.24,2.46.82,0,1.4-1.26,1.84-2.46a30.23,30.23,0,0,0,1.56-6.41A6.28,6.28,0,0,0,62.9,369.27Z"/><path class="cls-6" d="M97.16,359.24a1.1,1.1,0,0,1,1.28,1.22c0,1.1-.5,1.36-1.28,1.36H93.72c-.14.38-.18.54-.32.88h1.74c2.1,0,2.55.38,2.55,2.48V371c0,2.08-.41,2.48-2.55,2.48H89.56c-2.14,0-2.54-.4-2.54-2.48v-5.81c0-2.06.4-2.48,2.54-2.48h.82a5.61,5.61,0,0,0,.3-.88H87.76a1.12,1.12,0,0,1-1.2-.64c0,.4-.18,1.12-1.38,1.12h-.62v12.55c0,1.88-.26,2.54-2.5,2.54-.36,0-1.24,0-1.54-.06a1.43,1.43,0,0,1-1.16-1.56,1.25,1.25,0,0,1,1.38-1.44c.64,0,.9,0,.9-.58V362.3h-.7c-.58,0-1.48-.08-1.48-1.46,0-1.14.46-1.56,1.48-1.56h4.18a1.27,1.27,0,0,1,1.4.82,1.06,1.06,0,0,1,1.24-.86ZM91.6,374.91c0,.64-.48.9-2,1.74a7.61,7.61,0,0,1-2.56.92,1.43,1.43,0,0,1-1.38-1.52c0-.76.38-.88,1.52-1.28a13,13,0,0,0,2.32-1,1.68,1.68,0,0,1,.88-.22A1.4,1.4,0,0,1,91.6,374.91Zm-1.68-9.17h4.76v-.52a.34.34,0,0,0-.38-.38h-4a.34.34,0,0,0-.38.38Zm4.76,1.78H89.92v.88h4.76Zm-4.76,2.75v.64a.34.34,0,0,0,.38.38h4a.34.34,0,0,0,.38-.38v-.64Zm5.56,3.7a16.11,16.11,0,0,0,1.75.74c.66.22,1.29.48,1.29,1.26s-.43,1.64-1.36,1.64a8.26,8.26,0,0,1-2.8-1.1c-1.08-.6-1.56-.86-1.56-1.54a1.41,1.41,0,0,1,1.4-1.44A2.58,2.58,0,0,1,95.48,374Z"/><path class="cls-6" d="M103.88,373.19a7.81,7.81,0,0,1-1,2.78c-.7,1.3-1,1.62-1.7,1.62a1.67,1.67,0,0,1-1.76-1.48c0-.34.1-.5.64-1.34a17.36,17.36,0,0,0,1-2,1.26,1.26,0,0,1,1.18-.9C102.9,371.91,103.88,372.27,103.88,373.19Zm3.08-9.11V359.8c0-.86.28-1.3,1.74-1.3.66,0,1.48.2,1.48,1.14v.44H117c1,0,1.47.46,1.47,1.54A1.25,1.25,0,0,1,117,363h-6.82v1.12h4.2c1.48,0,2.43.46,2.43,2.42v2.79c0,2-1,2.42-2.43,2.42H103.54c-1.5,0-2.44-.48-2.44-2.42V366.5c0-1.92.9-2.42,2.44-2.42Zm6.64,3.28a.49.49,0,0,0-.54-.56h-8.22a.5.5,0,0,0-.54.56v1a.48.48,0,0,0,.54.55h8.22a.49.49,0,0,0,.54-.55Zm-5.78,6c.08.58.14,2,.14,2.72s0,1.6-1.6,1.6c-.86,0-1.5-.32-1.5-1.38,0-.24,0-1.3,0-1.52A6.37,6.37,0,0,1,105,373a1.31,1.31,0,0,1,1.34-.74C107.4,372.21,107.74,372.69,107.82,373.33Zm4.62.36a11,11,0,0,1,.66,2.5c0,1.32-1.56,1.32-1.78,1.32-1.18,0-1.3-.66-1.46-1.58,0-.08-.14-.86-.32-1.5a6.25,6.25,0,0,1-.26-1.08c0-1.2,1.42-1.2,1.62-1.2C111.92,372.15,112.1,372.67,112.44,373.69Zm4.88-.2c.91,1.6,1.12,2.08,1.12,2.52,0,1.14-1.32,1.48-1.84,1.48-.8,0-1-.32-1.54-1.58-.22-.46-.72-1.46-.86-1.76a2,2,0,0,1-.26-.94c0-1.14,1.34-1.34,1.62-1.34C116.38,371.85,116.56,372.15,117.32,373.49Z"/><path class="cls-6" d="M124.58,360.68c0,.3-.22,1.66-.26,1.94a60.71,60.71,0,0,0-.42,6.86c0,.67,0,2.29.14,3.65,0,.28.22,2,.22,2.18,0,.6-.16,1.52-1.68,1.52-1.16,0-1.4-.66-1.58-1.52a32.32,32.32,0,0,1-.32-5.16,56.17,56.17,0,0,1,.7-9.65c.26-1.1.92-1.1,1.72-1.1C123.44,359.4,124.58,359.54,124.58,360.68Zm12.23,14.79a17.78,17.78,0,0,1-4.43.48c-3.32,0-6.66-.56-6.66-4,0,0,0-3.38,2.22-3.38.8,0,1.8.39,1.8,1.26,0,.36-.06.5-.4,1.14a1.8,1.8,0,0,0-.3.84c0,.78.88,1.06,2.86,1.06a23,23,0,0,0,2.52-.2c.28,0,1.54-.24,1.81-.24a1.34,1.34,0,0,1,1.46,1.5C137.69,375,137.28,375.27,136.81,375.47Zm-1.33-11.65-2,0c-.88,0-3.22,0-4.92.14l-.6,0a1.41,1.41,0,0,1-1.6-1.56c0-1.34.88-1.46,1.24-1.52a60.56,60.56,0,0,1,6.06-.22,18.44,18.44,0,0,1,2.66.12,1.34,1.34,0,0,1,.92,1.46C137.2,363.66,136.24,363.82,135.48,363.82Z"/><path class="cls-6" d="M29.22,390.06c.48-1.12.66-1.5,1.56-1.5.34,0,1.7.14,1.7,1,0,.16,0,.18-.18.54h4.9a1,1,0,0,1,1.22,1.08c0,1-.74,1.1-1.22,1.1H31.86v.68H37c.36,0,.88.06.88.82,0,.6-.3.82-.88.82h-5.1v.68h5.08c.28,0,.9,0,.9.8s-.56.82-.9.82H31.86v.72H37.8c.36,0,1.18,0,1.18,1s-.68,1-1.18,1H31.4v.79H38c.52,0,1.42.1,1.42,1.18,0,.9-.6,1.18-1.42,1.18H33.62a16.71,16.71,0,0,0,4.7,1.8c.87.24,1,.7,1,1.18,0,.66-.38,1.68-1.34,1.68a15,15,0,0,1-6.6-3.12v1.94c0,.94-.36,1.42-1.4,1.42s-1.58-.36-1.58-1.42v-1.92a17.38,17.38,0,0,1-4,2.34,9.26,9.26,0,0,1-2.52.7,1.46,1.46,0,0,1-1.3-1.6c0-.94.36-1,2.22-1.54a13.13,13.13,0,0,0,3.4-1.46H21.86c-.9,0-1.42-.32-1.42-1.16s.38-1.2,1.42-1.2h6.58v-.79H25.06c-1.58,0-2.38-.55-2.38-2.37V395.5a1.49,1.49,0,0,1-.76.22,1.66,1.66,0,0,1-1.44-1.66c0-.54.1-.66,1.38-1.84A11.33,11.33,0,0,0,24,389.5c.36-.62.62-1,1.44-1,.54,0,1.66.24,1.66,1.12a1.74,1.74,0,0,1-.08.44Zm-.1,2.18H26a.33.33,0,0,0-.38.38v.3h3.48Zm0,2.32H25.64v.68h3.48Zm0,3v-.72H25.64v.34a.34.34,0,0,0,.38.38Z"/><path class="cls-6" d="M52,395.32c.66,0,3.64-.08,4.24-.12l.56,0a1.23,1.23,0,0,1,1.4,1.36c0,1.31-.88,1.36-2,1.39l-4.14.09,0,2a19.45,19.45,0,0,1,5.6,3.14,1.65,1.65,0,0,1,.72,1.3,1.8,1.8,0,0,1-1.66,1.82c-.48,0-.76-.14-1.44-.74-.34-.3-1.2-1-2.08-1.6a11,11,0,0,0-1.14-.68c-.08,1.18-.24,3.74-4.64,3.74-3.76,0-5.8-1.62-5.8-3.86s2-3.88,5.72-3.88a11.26,11.26,0,0,1,1.52.1l0-1.23-5,0a3.77,3.77,0,0,1-1.7-.18,1.32,1.32,0,0,1-.56-1.2c0-1,.6-1.34,1.42-1.34l5.76,0,0-1.42-4.66,0h-.48a3.41,3.41,0,0,1-1.6-.18,1.34,1.34,0,0,1-.58-1.2c0-1.38,1.08-1.38,1.64-1.38l1.1,0c.72,0,3.88,0,4.54,0l0-.76c0-1.24,1-1.4,1.58-1.4.82,0,1.58.26,1.62,1.4l0,.7c.7,0,3.84-.08,4.48-.12l.58,0a1.24,1.24,0,0,1,1.4,1.38c0,1.3-.86,1.34-1.68,1.38s-4.06.1-4.74.12Zm-4.84,6.33c-.54,0-2.52.08-2.52,1.34,0,.84.94,1.26,2.38,1.26.6,0,1.36-.08,1.68-.6.18-.32.2-.64.2-1.7A4.76,4.76,0,0,0,47.18,401.65Z"/><path class="cls-6" d="M72.36,395.18a7.81,7.81,0,0,1,3.2.68,5.16,5.16,0,0,1,2.86,4.87,5.84,5.84,0,0,1-3.56,5.52,11.17,11.17,0,0,1-4.64.84,7.84,7.84,0,0,1-4.48-1,3,3,0,0,1-1.4-2.56c0-2.46,2.12-3.58,4.4-3.58,1.26,0,4.06.34,4.06,3.38a3.28,3.28,0,0,1-.1.74,3.06,3.06,0,0,0,2.38-3,2.86,2.86,0,0,0-1.76-2.74,5.86,5.86,0,0,0-2.24-.37,9.07,9.07,0,0,0-6.36,2.65c-1.32,1.22-1.44,1.3-2,1.3a1.73,1.73,0,0,1-1.66-1.7c0-.68.24-.86,1.66-1.91,2.62-1.9,4.56-3.36,6.7-5.06a7.6,7.6,0,0,0,.68-.58c-.9,0-5.22.34-5.66.34a1.39,1.39,0,0,1-1.6-1.54c0-1.42,1.06-1.5,1.7-1.52,5.18-.08,5.64-.08,8.14-.18l1.06,0c.6,0,1.86,0,1.86,1.4,0,1-.26,1.2-2.54,2.58-1.22.74-2.1,1.42-2.62,1.8A5.73,5.73,0,0,1,72.36,395.18Zm-2,8.59c0-1.08-.76-1.38-1.58-1.38s-1.62.4-1.62,1,.86,1.12,2.26,1.12a4.35,4.35,0,0,0,.84-.1A2.63,2.63,0,0,0,70.34,403.77Z"/><path class="cls-6" d="M95.94,393.28c1.74,0,2.66.62,2.66,2.66v8.49c0,2.12-1,2.66-2.66,2.66H84c-1.64,0-2.66-.54-2.66-2.66v-8.49c0-2,.92-2.66,2.66-2.66h3.7A8.21,8.21,0,0,0,88,392H81.9a1.24,1.24,0,0,1-1.46-1.3c0-1,.42-1.44,1.46-1.44H98.1a1.24,1.24,0,0,1,1.46,1.3c0,1-.41,1.44-1.46,1.44H91.28a11.51,11.51,0,0,1-.38,1.3Zm-10.22,2.56h-1a.45.45,0,0,0-.48.5V404a.44.44,0,0,0,.48.5h1Zm5.8,1.36v-1.36H88.36v1.36Zm0,3.57v-1.42H88.36v1.42Zm0,2.16H88.36v1.6h3.16Zm2.74-7.09v8.69h1a.46.46,0,0,0,.5-.5v-7.69a.45.45,0,0,0-.5-.5Z"/><path class="cls-6" d="M108.74,402.71c-1.06,1.66-2.24,2.46-3.76,2.46-2.9,0-4.14-2.94-4.14-5.92,0-6.47,4.84-9.49,9.68-9.49,5.88,0,8.63,3.7,8.63,8.39,0,7.48-7,8.58-8.51,8.58a1.53,1.53,0,0,1-1.6-1.64c0-1.28.9-1.42,1.56-1.52,1.68-.26,5.2-.78,5.2-5.6,0-3.45-2-5-4.12-5.19C111.26,396.16,110.16,400.51,108.74,402.71Zm-4.82-3.44c0,1.64.62,2.46,1.24,2.46.82,0,1.4-1.26,1.84-2.46a30.23,30.23,0,0,0,1.56-6.41A6.28,6.28,0,0,0,103.92,399.27Z"/><path class="cls-6" d="M121.64,401.51a1.05,1.05,0,0,1-1.16-1.18c0-.89.46-1.23,1.26-1.23h1.62c.4-1.09.46-1.28,1.1-1.4a2,2,0,0,1,0-.5v-1.14a13.15,13.15,0,0,1-1.6,1.6,1.67,1.67,0,0,1-1.08.5,1.42,1.42,0,0,1-1.34-1.54c0-.54.34-.74,1.26-1.3A9.18,9.18,0,0,0,123.3,394h-1.56c-.4,0-1.22,0-1.22-1.14s.6-1.12,1.22-1.12h2.68v-1.9c0-.38,0-1.26,1.32-1.26,1.14,0,1.48.4,1.48,1.26v1.9h2.4c.4,0,1.22,0,1.22,1.1s-.74,1.16-1.22,1.16h-1.54a13.74,13.74,0,0,0,1.26,1.16c.48.38.5.42.58.6a15.77,15.77,0,0,0,2.3-6,1.26,1.26,0,0,1,1.44-1.14c.38,0,1.56.06,1.56,1.14a6.08,6.08,0,0,1-.34,1.58h3.28a1.28,1.28,0,0,1,1.42,1.46c0,1.5-.94,1.54-1.32,1.56a19,19,0,0,1-1.78,7.81,12.94,12.94,0,0,0,2.34,2.28,1.65,1.65,0,0,1,.72,1.3,1.77,1.77,0,0,1-1.62,1.76c-.44,0-.86-.14-1.88-1.12a12.48,12.48,0,0,1-1.36-1.54,12.5,12.5,0,0,1-2.34,2c-.82.56-1.06.6-1.4.6a1.55,1.55,0,0,1-1.42-.94,1,1,0,0,1-.7.26c-.3,0-.48-.06-1-.42-.3-.2-.86-.5-1.12-.64a9.76,9.76,0,0,1-4.68,1.76,1.34,1.34,0,0,1-1.24-1.42c0-.88.68-1,1.14-1.1a14.57,14.57,0,0,0,2-.54c-.24-.08-1.28-.44-1.48-.54a1,1,0,0,1-.68-.94c0-.42.16-.66.56-1.34a.71.71,0,0,0,.08-.18Zm.84-9.77c-.58,0-.7-.2-1-.78-.38-.86-.42-1-.42-1.2,0-.52.58-.92,1.32-.92a1,1,0,0,1,1,.62,3,3,0,0,1,.5,1.34C123.92,391.26,123.5,391.74,122.48,391.74Zm2.62,9.77a6,6,0,0,0-.38.92.21.21,0,0,0,.14.22c.12.06,1.08.3,1.44.42a4.23,4.23,0,0,0,.82-1.56Zm4.64-2.41c.7,0,1.3.29,1.3,1.23,0,1.18-1,1.18-1.38,1.2a5.24,5.24,0,0,1-1,2.4c1,.42,1.12.46,1.3.84l1-.66a7.93,7.93,0,0,0,2.06-1.8,14.23,14.23,0,0,1-1.28-3.87,1.44,1.44,0,0,1-1.1.57,1.68,1.68,0,0,1-1.6-1.43c-.54.12-1-.22-1.86-1.38v1c0,.53-.1,1.07-.88,1.23a1.51,1.51,0,0,1-.12.67Zm.92-9.36a3.41,3.41,0,0,1-.6,1.4,1.16,1.16,0,0,1-1.06.62c-.66,0-1.3-.38-1.3-.94,0-.28,0-.34.56-1.32a1,1,0,0,1,1-.68C130,388.82,130.66,389.18,130.66,389.74Zm3.22,4.68a.38.38,0,0,1-.06.16,15.71,15.71,0,0,0,.92,4.59,16.61,16.61,0,0,0,.7-4.75Z"/><path class="cls-6" d="M58.18,430.24a1.11,1.11,0,0,1,1.28,1.22c0,1.1-.5,1.36-1.28,1.36H54.74c-.14.38-.18.54-.32.88h1.74c2.1,0,2.54.38,2.54,2.48V442c0,2.08-.4,2.48-2.54,2.48H50.58c-2.14,0-2.54-.4-2.54-2.48v-5.81c0-2.06.4-2.48,2.54-2.48h.82a5.61,5.61,0,0,0,.3-.88H48.78a1.12,1.12,0,0,1-1.2-.64c0,.4-.18,1.12-1.38,1.12h-.62v12.55c0,1.88-.26,2.54-2.5,2.54-.36,0-1.24,0-1.54-.06a1.43,1.43,0,0,1-1.16-1.56,1.25,1.25,0,0,1,1.38-1.44c.64,0,.9,0,.9-.58V433.3H42c-.58,0-1.48-.08-1.48-1.46,0-1.14.46-1.56,1.48-1.56h4.18a1.27,1.27,0,0,1,1.4.82,1.06,1.06,0,0,1,1.24-.86Zm-5.56,15.67c0,.64-.48.9-2,1.74a7.61,7.61,0,0,1-2.56.92,1.43,1.43,0,0,1-1.38-1.52c0-.76.38-.88,1.52-1.28a13,13,0,0,0,2.32-1,1.68,1.68,0,0,1,.88-.22A1.4,1.4,0,0,1,52.62,445.91Zm-1.68-9.17H55.7v-.52a.34.34,0,0,0-.38-.38h-4a.34.34,0,0,0-.38.38Zm4.76,1.78H50.94v.88H55.7Zm-4.76,2.75v.64a.34.34,0,0,0,.38.38h4a.34.34,0,0,0,.38-.38v-.64ZM56.5,445a16.83,16.83,0,0,0,1.74.74c.66.22,1.3.48,1.3,1.26s-.44,1.64-1.36,1.64a8.26,8.26,0,0,1-2.8-1.1c-1.08-.6-1.56-.86-1.56-1.54a1.41,1.41,0,0,1,1.4-1.44A2.58,2.58,0,0,1,56.5,445Z"/><path class="cls-6" d="M64.9,444.19a7.81,7.81,0,0,1-1,2.78c-.7,1.3-1,1.62-1.7,1.62a1.67,1.67,0,0,1-1.76-1.48c0-.34.1-.5.64-1.34a17.36,17.36,0,0,0,1-2,1.26,1.26,0,0,1,1.18-.9C63.92,442.91,64.9,443.27,64.9,444.19ZM68,435.08V430.8c0-.86.28-1.3,1.74-1.3.66,0,1.48.2,1.48,1.14v.44H78c1,0,1.46.46,1.46,1.54A1.25,1.25,0,0,1,78,434H71.2v1.12h4.2c1.48,0,2.42.46,2.42,2.42v2.79c0,2-1,2.42-2.42,2.42H64.56c-1.5,0-2.44-.48-2.44-2.42V437.5c0-1.92.9-2.42,2.44-2.42Zm6.64,3.28a.49.49,0,0,0-.54-.56H65.86a.5.5,0,0,0-.54.56v1a.48.48,0,0,0,.54.55h8.22a.49.49,0,0,0,.54-.55Zm-5.78,6c.08.58.14,2,.14,2.72s0,1.6-1.6,1.6c-.86,0-1.5-.32-1.5-1.38,0-.24,0-1.3,0-1.52A6.37,6.37,0,0,1,66,444a1.31,1.31,0,0,1,1.34-.74C68.42,443.21,68.76,443.69,68.84,444.33Zm4.62.36a11,11,0,0,1,.66,2.5c0,1.32-1.56,1.32-1.78,1.32-1.18,0-1.3-.66-1.46-1.58,0-.08-.14-.86-.32-1.5a6.25,6.25,0,0,1-.26-1.08c0-1.2,1.42-1.2,1.62-1.2C72.94,443.15,73.12,443.67,73.46,444.69Zm4.88-.2c.9,1.6,1.12,2.08,1.12,2.52,0,1.14-1.32,1.48-1.84,1.48-.8,0-1-.32-1.54-1.58-.22-.46-.72-1.46-.86-1.76a2,2,0,0,1-.26-.94c0-1.14,1.34-1.34,1.62-1.34C77.4,442.85,77.58,443.15,78.34,444.49Z"/><path class="cls-6" d="M88.74,443.71c-1.06,1.66-2.24,2.46-3.76,2.46-2.9,0-4.14-2.94-4.14-5.92,0-6.47,4.84-9.49,9.68-9.49,5.88,0,8.63,3.7,8.63,8.39,0,7.48-7,8.58-8.51,8.58a1.53,1.53,0,0,1-1.6-1.64c0-1.28.9-1.42,1.56-1.52,1.68-.26,5.2-.78,5.2-5.6,0-3.45-2-5-4.12-5.19C91.26,437.16,90.16,441.51,88.74,443.71Zm-4.82-3.44c0,1.64.62,2.46,1.24,2.46.82,0,1.4-1.26,1.84-2.46a30.23,30.23,0,0,0,1.56-6.41A6.28,6.28,0,0,0,83.92,440.27Z"/><path class="cls-6" d="M101.64,442.51a1.05,1.05,0,0,1-1.16-1.18c0-.89.46-1.23,1.26-1.23h1.62c.4-1.09.46-1.28,1.1-1.4a2,2,0,0,1,0-.5v-1.14a13.15,13.15,0,0,1-1.6,1.6,1.67,1.67,0,0,1-1.08.5,1.42,1.42,0,0,1-1.34-1.54c0-.54.34-.74,1.26-1.3A9.18,9.18,0,0,0,103.3,435h-1.56c-.4,0-1.22,0-1.22-1.14s.6-1.12,1.22-1.12h2.68v-1.9c0-.38,0-1.26,1.32-1.26,1.14,0,1.48.4,1.48,1.26v1.9h2.4c.4,0,1.22,0,1.22,1.1s-.74,1.16-1.22,1.16h-1.54a13.74,13.74,0,0,0,1.26,1.16c.48.38.5.42.58.6a15.77,15.77,0,0,0,2.3-6,1.26,1.26,0,0,1,1.44-1.14c.38,0,1.56.06,1.56,1.14a6.08,6.08,0,0,1-.34,1.58h3.28a1.28,1.28,0,0,1,1.42,1.46c0,1.5-.94,1.54-1.32,1.56a19,19,0,0,1-1.78,7.81,12.94,12.94,0,0,0,2.34,2.28,1.65,1.65,0,0,1,.72,1.3,1.77,1.77,0,0,1-1.62,1.76c-.44,0-.86-.14-1.88-1.12a12.48,12.48,0,0,1-1.36-1.54,12.5,12.5,0,0,1-2.34,2c-.82.56-1.06.6-1.4.6a1.55,1.55,0,0,1-1.42-.94,1,1,0,0,1-.7.26c-.3,0-.48-.06-1-.42-.3-.2-.86-.5-1.12-.64a9.76,9.76,0,0,1-4.68,1.76,1.34,1.34,0,0,1-1.24-1.42c0-.88.68-1,1.14-1.1a14.57,14.57,0,0,0,2-.54c-.24-.08-1.28-.44-1.48-.54a1,1,0,0,1-.68-.94c0-.42.16-.66.56-1.34a.71.71,0,0,0,.08-.18Zm.84-9.77c-.58,0-.7-.2-1-.78-.38-.86-.42-1-.42-1.2,0-.52.58-.92,1.32-.92a1,1,0,0,1,1,.62,3,3,0,0,1,.5,1.34C103.92,432.26,103.5,432.74,102.48,432.74Zm2.62,9.77a6,6,0,0,0-.38.92.21.21,0,0,0,.14.22c.12.06,1.08.3,1.44.42a4.23,4.23,0,0,0,.82-1.56Zm4.64-2.41c.7,0,1.3.29,1.3,1.23,0,1.18-1,1.18-1.38,1.2a5.24,5.24,0,0,1-1,2.4c1,.42,1.12.46,1.3.84l1-.66a7.93,7.93,0,0,0,2.06-1.8,14.23,14.23,0,0,1-1.28-3.87,1.44,1.44,0,0,1-1.1.57,1.68,1.68,0,0,1-1.6-1.43c-.54.12-1-.22-1.86-1.38v1c0,.53-.1,1.07-.88,1.23a1.51,1.51,0,0,1-.12.67Zm.92-9.36a3.41,3.41,0,0,1-.6,1.4,1.16,1.16,0,0,1-1.06.62c-.66,0-1.3-.38-1.3-.94,0-.28,0-.34.56-1.32a1,1,0,0,1,1-.68C110,429.82,110.66,430.18,110.66,430.74Zm3.22,4.68a.38.38,0,0,1-.06.16,15.71,15.71,0,0,0,.92,4.59,16.61,16.61,0,0,0,.7-4.75Z"/></g></g><g id="shape"><polygon class="cls-7" points="261.22 19.7 183.38 123.75 269.41 164.3 320.62 116.37 261.22 19.7"/><line class="cls-8" x1="269.41" y1="164.3" x2="261.22" y2="19.7"/><line class="cls-9" x1="183.38" y1="123.75" x2="320.62" y2="116.37"/><polygon class="cls-7" points="499.83 115.07 499.83 28.17 412.93 28.17 372.17 68.93 372.17 155.83 459.07 155.83 499.83 115.07"/><line class="cls-8" x1="459.07" y1="68.93" x2="459.07" y2="155.83"/><line class="cls-10" x1="412.93" y1="115.07" x2="412.93" y2="28.17"/><line class="cls-10" x1="499.83" y1="115.07" x2="412.93" y2="115.07"/><line class="cls-11" x1="372.17" y1="155.83" x2="412.93" y2="115.07"/><line class="cls-8" x1="372.17" y1="68.93" x2="459.07" y2="68.93"/><line class="cls-8" x1="459.07" y1="68.93" x2="499.83" y2="28.17"/><polygon class="cls-7" points="688.42 84.43 620 21.8 551.58 94.59 620 162.2 688.42 84.43"/><polyline class="cls-8" points="551.58 94.59 633.17 113.63 688.42 84.43"/><polyline class="cls-8" points="620 21.8 633.17 113.63 620 162.2"/><line class="cls-12" x1="606.83" y1="65.4" x2="620" y2="21.8"/><line class="cls-13" x1="606.83" y1="65.4" x2="551.58" y2="94.6"/><line class="cls-14" x1="688.42" y1="84.43" x2="606.83" y2="65.4"/><line class="cls-15" x1="620" y1="162.2" x2="606.83" y2="65.4"/><polygon class="cls-7" points="804 18.65 760.89 32.66 734.24 69.33 734.24 114.67 760.89 151.34 804 165.35 847.11 151.34 873.76 114.67 873.76 69.33 847.11 32.66 804 18.65"/><line class="cls-16" x1="846.8" y1="105.91" x2="804" y2="137"/><line class="cls-16" x1="830.45" y1="55.59" x2="846.8" y2="105.91"/><line class="cls-16" x1="777.55" y1="55.59" x2="830.45" y2="55.59"/><line class="cls-16" x1="761.2" y1="105.91" x2="777.55" y2="55.59"/><line class="cls-16" x1="804" y1="137" x2="761.2" y2="105.91"/><line class="cls-17" x1="804" y1="137" x2="804" y2="165.35"/><line class="cls-17" x1="734.24" y1="114.67" x2="761.2" y2="105.91"/><line class="cls-17" x1="760.89" y1="32.66" x2="777.55" y2="55.59"/><line class="cls-17" x1="847.11" y1="32.66" x2="830.45" y2="55.59"/><line class="cls-17" x1="873.76" y1="114.67" x2="846.8" y2="105.91"/><line class="cls-8" x1="846.8" y1="78.09" x2="804" y2="47"/><line class="cls-8" x1="830.45" y1="128.41" x2="846.8" y2="78.09"/><line class="cls-8" x1="777.55" y1="128.41" x2="830.45" y2="128.41"/><line class="cls-8" x1="761.2" y1="78.09" x2="777.55" y2="128.41"/><line class="cls-8" x1="804" y1="47" x2="761.2" y2="78.09"/><line class="cls-8" x1="804" y1="47" x2="804" y2="18.65"/><line class="cls-8" x1="734.24" y1="69.33" x2="761.2" y2="78.09"/><line class="cls-8" x1="760.89" y1="151.34" x2="777.55" y2="128.41"/><line class="cls-8" x1="847.11" y1="151.34" x2="830.45" y2="128.41"/><line class="cls-8" x1="873.76" y1="69.33" x2="846.8" y2="78.09"/><polygon class="cls-7" points="988 17.75 923.7 54.88 923.7 129.13 988 166.25 1052.3 129.13 1052.3 54.88 988 17.75"/><line class="cls-18" x1="1029.07" y1="115.71" x2="988" y2="44.57"/><line class="cls-18" x1="946.93" y1="115.71" x2="1029.07" y2="115.71"/><line class="cls-18" x1="988" y1="44.57" x2="946.93" y2="115.71"/><line class="cls-19" x1="1029.07" y1="115.71" x2="988" y2="166.25"/><line class="cls-19" x1="988" y1="166.25" x2="946.93" y2="115.71"/><line class="cls-20" x1="988" y1="17.75" x2="988" y2="44.57"/><line class="cls-20" x1="923.7" y1="129.12" x2="946.93" y2="115.71"/><line class="cls-20" x1="1052.3" y1="129.13" x2="1029.07" y2="115.71"/><line class="cls-19" x1="923.7" y1="54.87" x2="946.93" y2="115.71"/><line class="cls-19" x1="923.7" y1="54.87" x2="988" y2="44.57"/><line class="cls-19" x1="1052.3" y1="54.88" x2="1029.07" y2="115.71"/><line class="cls-19" x1="1052.3" y1="54.88" x2="988" y2="44.57"/><line class="cls-21" x1="1029.07" y1="68.29" x2="988" y2="139.43"/><line class="cls-21" x1="946.93" y1="68.29" x2="1029.07" y2="68.29"/><line class="cls-21" x1="988" y1="139.43" x2="946.93" y2="68.29"/><line class="cls-22" x1="1029.07" y1="68.29" x2="988" y2="17.75"/><line class="cls-22" x1="988" y1="17.75" x2="946.93" y2="68.29"/><line class="cls-23" x1="988" y1="166.25" x2="988" y2="139.43"/><line class="cls-23" x1="923.7" y1="54.88" x2="946.93" y2="68.29"/><line class="cls-23" x1="1052.3" y1="54.87" x2="1029.07" y2="68.29"/><line class="cls-22" x1="923.7" y1="129.13" x2="946.93" y2="68.29"/><line class="cls-22" x1="923.7" y1="129.13" x2="988" y2="139.43"/><line class="cls-22" x1="1052.3" y1="129.12" x2="1029.07" y2="68.29"/><line class="cls-22" x1="1052.3" y1="129.12" x2="988" y2="139.43"/><line class="cls-8" x1="1029.07" y1="68.29" x2="988" y2="139.43"/><line class="cls-8" x1="946.93" y1="68.29" x2="1029.07" y2="68.29"/><line class="cls-8" x1="988" y1="139.43" x2="946.93" y2="68.29"/><line class="cls-8" x1="1029.07" y1="68.29" x2="988" y2="17.75"/><line class="cls-8" x1="988" y1="17.75" x2="946.93" y2="68.29"/><line class="cls-8" x1="988" y1="166.25" x2="988" y2="139.43"/><line class="cls-8" x1="923.7" y1="54.88" x2="946.93" y2="68.29"/><line class="cls-8" x1="1052.3" y1="54.87" x2="1029.07" y2="68.29"/><line class="cls-8" x1="923.7" y1="129.13" x2="946.93" y2="68.29"/><line class="cls-8" x1="923.7" y1="129.13" x2="988" y2="139.43"/><line class="cls-8" x1="1052.3" y1="129.12" x2="1029.07" y2="68.29"/><line class="cls-8" x1="1052.3" y1="129.12" x2="988" y2="139.43"/></g></g></svg>