<svg xmlns="http://www.w3.org/2000/svg" viewBox="0 0 300 56"><defs><style>.cls-1{fill:#009fe8;}.cls-2{fill:#fff;}</style></defs><title>Asset 14</title><g id="Layer_2" data-name="Layer 2"><g id="buttons"><g id="home_button" data-name="home button"><g id="home_button_show" data-name="home button show"><rect class="cls-1" width="300" height="56"/><path class="cls-2" d="M52.33,17.46c2.56,0,3.78.79,3.78,3.49a52.54,52.54,0,0,1-2.3,13.78c2.59,2.09,3.06,2.81,3.06,3.85a2.8,2.8,0,0,1-2.63,2.78c-.87,0-1.33-.47-2.63-1.8-.54,1-2.52,4.39-4.57,5.79a2.15,2.15,0,0,1-1.22.36,2.84,2.84,0,0,1-2.74-2.77,2.26,2.26,0,0,1,.68-1.55c3.24-3.42,3.42-3.6,4.32-5.07-1-.72-2.48-1.8-3.42-2.56a2.66,2.66,0,0,1-1.26-2.3A10.27,10.27,0,0,1,43.8,29c.47-2.09.76-4.25,1.08-6.37a2.13,2.13,0,0,1-2.12-2.41c0-2.09.82-2.74,2.62-2.74.15-4.1.22-6,2.85-6,2.41,0,2.44,1.94,2.44,2.7,0,1.26-.17,2.81-.21,3.28Zm-2.48,5.21c-.25,1.59-.65,4.43-1.44,7.6a1.33,1.33,0,0,0,0,.4.55.55,0,0,0,.18.39c.07.07,1,.65,1.51,1a28.53,28.53,0,0,0,1.33-5.58c.22-1.51.36-2.95.36-3.2,0-.58-.43-.58-.64-.58Zm11-7.81c.57-2.55,1.18-3.34,3.2-3.34,1.55,0,2.73.68,2.73,2.08s-1.8,6.09-3.2,9.18c.51,0,3-.14,3.49-.18,1.55-.07,2.49-.18,3-.21-.11-.29-.29-.65-.54-1.19a8.27,8.27,0,0,1-.87-2.45c0-1.83,1.77-2.27,2.67-2.27,1.18,0,1.65.61,2.34,1.73,1.22,2,3.42,6.91,3.42,8.75,0,1.65-1.84,2.23-2.81,2.23-1.51,0-1.8-.72-2.52-2.56-4.18.58-12.49,1.23-13.18,1.23-.86,0-2.7,0-2.7-2.45,0-2.16,1.66-2.34,2.56-2.41C59.24,20.73,60.39,16.7,60.83,14.86ZM75.55,40.74c0,3.39-1.51,4.4-4.36,4.4h-9.1c-2.81,0-4.36-1-4.36-4.4v-6.8c0-3.35,1.51-4.36,4.36-4.36h9.1c2.81,0,4.36,1,4.36,4.36Zm-5.26-5.43a.89.89,0,0,0-1-1H63.71a.91.91,0,0,0-1,1v4a.9.9,0,0,0,1,1h5.58a.89.89,0,0,0,1-1Z"/><path class="cls-2" d="M86.06,42.58c-3.6,0-6.37-3-6.37-8.39a15.16,15.16,0,0,1,4.54-10.87A40.51,40.51,0,0,1,82.9,17c0-2.52,2.41-2.59,3-2.59a2,2,0,0,1,2.2,1.58c.18.61.65,3.6.75,4.18a21.55,21.55,0,0,1,7.06-1.95A20.72,20.72,0,0,1,97,13.53a2.4,2.4,0,0,1,2.3-1.11c1.8,0,3.13.86,3.13,2.26a24.08,24.08,0,0,1-.82,3.82c7.45,1.4,10.58,6.08,10.58,12.31,0,4.28-1.55,8.53-5.08,10.91a18.28,18.28,0,0,1-9.28,2.84A2.61,2.61,0,0,1,95,41.72c0-2.09,1-2.24,3.06-2.56,2.63-.4,8.64-1.3,8.64-8.6,0-6.09-4.54-6.88-6.44-7.24A82.28,82.28,0,0,1,96,33.9c1,.8,1.44,1.23,1.44,2.13a3.22,3.22,0,0,1-2.7,3.06,3.57,3.57,0,0,1-1.8-.65C89.91,42,87.9,42.58,86.06,42.58Zm0-13.86A11,11,0,0,0,84.62,34c0,1.58.36,3.31,1.84,3.31.83,0,1.47-.36,3.09-2.45A28,28,0,0,1,86.1,28.72Zm6.3,1.4a41.16,41.16,0,0,0,2.41-6.83A13.05,13.05,0,0,0,90,24.94,24.89,24.89,0,0,0,92.4,30.12Z"/><path class="cls-2" d="M124.08,15.37c0,.54-.4,3-.47,3.49a109.86,109.86,0,0,0-.75,12.35c0,1.18,0,4.1.25,6.55.07.5.39,3.63.39,3.92,0,1.08-.29,2.74-3,2.74-2.09,0-2.52-1.19-2.84-2.74a58,58,0,0,1-.58-9.29A101.12,101.12,0,0,1,118.32,15c.47-2,1.65-2,3.1-2C122,13.06,124.08,13.32,124.08,15.37Zm22,26.6c-1.62.72-6.73.86-7.95.86-6,0-12-1-12-7.23,0,0,0-6.09,4-6.09,1.44,0,3.24.72,3.24,2.27,0,.65-.11.9-.72,2a3.15,3.15,0,0,0-.54,1.51c0,1.41,1.58,1.91,5.14,1.91a41,41,0,0,0,4.54-.36c.5-.07,2.77-.43,3.24-.43a2.41,2.41,0,0,1,2.63,2.7C147.66,41,146.94,41.61,146.07,42ZM143.7,21,140,21c-1.59,0-5.8.07-8.86.25-.11,0-.83.08-1.08.08-1.73,0-2.88-.8-2.88-2.81,0-2.41,1.58-2.63,2.23-2.74s5.18-.39,10.91-.39a34.2,34.2,0,0,1,4.79.21,2.42,2.42,0,0,1,1.65,2.63C146.79,20.73,145.06,21,143.7,21Z"/><path class="cls-2" d="M164.87,26.49c1,0,4.28-.07,6.08-.18.32,0,.9-.07,1.19-.07a2.44,2.44,0,0,1,2.77,2.59c0,2.45-1.77,2.55-3.49,2.66-1.12.08-6,.18-7.06.22-.07.9-.11,1.73-.11,2.81,0,2.59.58,4.64,6.3,4.64,5.37,0,7.24-1.69,7.24-5.83a11,11,0,0,0-.54-3.38,7.55,7.55,0,0,1-.54-2.2c0-1.62,1.69-2.3,3-2.3a3,3,0,0,1,3,1.9,14.09,14.09,0,0,1,1.19,6.3c0,9-5.33,11.05-13.36,11.05S158.42,42,158.42,34.41c0-.43,0-.9.15-2.7-1.44,0-3.49,0-4.25-.11A2.28,2.28,0,0,1,152.16,29c0-2.15,1.58-2.59,2.81-2.59l4,0,.36-4c-1.08,0-4.24,0-4.93-.18a2.4,2.4,0,0,1-1.62-2.48c0-2.45,2-2.6,2.92-2.6l4.06.08.15-1.88c.11-1.29.25-3,3-3,1.8,0,3.35.72,3.1,3.13l-.18,1.73c.54,0,4.57-.08,8.31-.22.47,0,2.52-.11,2.95-.11a2.46,2.46,0,0,1,2.81,2.59c0,2.45-1.94,2.6-2.91,2.63-4.72.25-7.46.25-11.7.29Z"/><path class="cls-2" d="M216,18.86a2.81,2.81,0,0,1,3,3.06c0,2.19-1.55,2.63-3.85,3-5.51,1-11.3,2.59-14.54,4.21-1.34.69-5.08,2.6-5.08,5.8,0,2.88,2.23,4,8.78,4a50.46,50.46,0,0,0,8.86-.82,21.66,21.66,0,0,1,2.55-.29c1.91,0,2.88,1,2.88,2.91s-1,2.52-2.52,2.88a58.88,58.88,0,0,1-10.94.87c-5.9,0-15.76-.43-15.76-9A10.55,10.55,0,0,1,193.74,27a35.42,35.42,0,0,1,5.54-3.13,42.92,42.92,0,0,0-1.44-6.3,12.42,12.42,0,0,1-.68-3.06c0-1.87,1.73-2.52,3.2-2.52,2.56,0,2.74,1.12,3.46,4.72.21,1.15.75,4.06.86,5.07C208.17,20.48,214.18,18.86,216,18.86Zm-2.7-5.19a2.21,2.21,0,0,1-.11-.64c0-.94,1-1.15,1.44-1.15.79,0,1.08.61,1.66,2.12a8.71,8.71,0,0,1,.72,2.74A1.26,1.26,0,0,1,215.59,18a1.11,1.11,0,0,1-1.15-.91c-.11-.28-.47-1.54-.54-1.76S213.36,13.93,213.25,13.67Zm4.14-.64a1.89,1.89,0,0,1-.11-.65c0-.94,1-1.15,1.4-1.15.76,0,1.08.54,1.62,1.91a9.25,9.25,0,0,1,.76,2.95,1.24,1.24,0,0,1-1.37,1.22,1.1,1.1,0,0,1-1.15-.9c-.11-.25-.47-1.55-.54-1.76S217.46,13.24,217.39,13Z"/><path class="cls-2" d="M244.25,23.47A14.07,14.07,0,0,1,250,24.69c3.5,1.55,5.15,5.15,5.15,8.75a10.51,10.51,0,0,1-6.4,9.93,20.11,20.11,0,0,1-8.36,1.51c-4.42,0-6.55-.9-8.06-1.83a5.45,5.45,0,0,1-2.52-4.61c0-4.43,3.82-6.44,7.92-6.44,2.27,0,7.31.61,7.31,6.08a6.33,6.33,0,0,1-.18,1.33,5.49,5.49,0,0,0,4.28-5.47A5.16,5.16,0,0,0,246,29a10.49,10.49,0,0,0-4-.65c-2.88,0-6.91.65-11.44,4.75-2.38,2.2-2.6,2.34-3.53,2.34a3.11,3.11,0,0,1-3-3.06c0-1.22.43-1.55,3-3.42,4.71-3.42,8.2-6,12.06-9.1a14.23,14.23,0,0,0,1.22-1.05c-1.62,0-9.4.61-10.19.61s-2.88-.07-2.88-2.77,1.91-2.7,3.06-2.73c9.33-.15,10.15-.15,14.65-.33.36,0,1.15,0,1.91,0,1.08,0,3.35,0,3.35,2.52,0,1.87-.47,2.16-4.57,4.64-2.2,1.33-3.78,2.56-4.72,3.24A10.33,10.33,0,0,1,244.25,23.47Zm-3.64,15.44c0-1.95-1.37-2.49-2.84-2.49-1.62,0-2.92.72-2.92,1.88s1.55,2,4.07,2a7.64,7.64,0,0,0,1.51-.18A4.68,4.68,0,0,0,240.61,38.91Z"/></g></g></g></g></svg>