<svg xmlns="http://www.w3.org/2000/svg" viewBox="0 0 1080 80"><defs><style>.cls-1{fill:#f1f1f1;}.cls-2{fill:#009fe8;}.cls-3{fill:#7baaf7;}.cls-4{fill:#fff;}</style></defs><title>Asset 2</title><g id="Layer_2" data-name="Layer 2"><g id="bass"><rect class="cls-1" width="1080" height="80"/></g><g id="dialog"><g id="手順1"><path class="cls-2" d="M108.08,32.44h8.42c.72,0,3.24,0,3.24,2.91,0,2.2-.79,3.31-3.24,3.31h-8.42v2.06h10.11c.76,0,3.28,0,3.28,3.06,0,2.44-1,3.34-3.28,3.34H108.08v5.22c0,5.26-3.1,5.37-8,5.37-4.24,0-7.16,0-7.16-3.64a3.14,3.14,0,0,1,3.28-3.35c.39,0,2.23.11,2.59.11,1.91,0,2.12,0,2.12-.68v-3H90.19c-.76,0-3.24,0-3.24-2.95,0-2.34.76-3.45,3.24-3.45H101V38.66H92.1c-.72,0-3.28,0-3.28-2.91,0-2.34,1-3.31,3.28-3.31H101v-1.8c-1.73.07-5.72.25-8.82.25-1.19,0-3.81,0-3.81-3.2,0-3,2.34-3,4.53-3.06,7.85-.11,8.5-.15,14.87-.62,1.4-.1,8.89-.86,9-.86,1,0,2.85.58,2.85,3.31,0,2.27-1.34,2.67-2,2.88a72.7,72.7,0,0,1-9.43.9Z"/><path class="cls-2" d="M129.38,40.43c0,1.11,0,10.08-.39,13.5-.29,2.7-1.73,3.09-2.84,3.09-1.55,0-3-1.15-3-2.37,0-.76.58-4,.69-4.61a69.1,69.1,0,0,0,.72-9.72V25.92c0-1.8,1-2.66,2.41-2.66a2.38,2.38,0,0,1,2.44,2.66Zm4.94,11.63c0,.68,0,2.26-1.95,2.26-1.22,0-2.16-.32-2.16-2.26V27.47c0-.61,0-2.23,1.95-2.23,1.47,0,2.16.57,2.16,2.23Zm13.39-2.13A3.17,3.17,0,0,1,149,52.45c0,1.44-.93,2.12-2.62,3.31-.91.65-2.78,1.84-3.78,1.84a2.68,2.68,0,0,1-2.45-2,2.4,2.4,0,0,1-2.49,2.09c-1.76,0-2.48-1.15-2.48-2.77V25.85a2.38,2.38,0,0,1,2.52-2.74,2.28,2.28,0,0,1,2.45,2.16,2.41,2.41,0,0,1,2.41-1.15h12.53c.82,0,2.8,0,2.8,2.92s-2,2.84-2.8,2.84h-2.92c0,.18-.07.25-.25.87,4.28,0,4.89.82,4.89,5v9.11c0,2.74,0,4.68-3.13,5,.25.21,1.62,1.4,1.95,1.62,1.87,1.33,2.08,1.51,2.08,2.66,0,1.58-1.08,3.35-2.77,3.35-.61,0-1.37-.11-3.42-2-.5-.43-2.12-1.91-2.12-3.17a2.93,2.93,0,0,1,1.44-2.48Zm-5.15-20a2.35,2.35,0,0,1-2.38-1.08V53c.29-.47.54-.4,2.45-1.62.11-.07,1.48-.93,2.23-1.44-3.63-.14-3.81-1.8-3.81-5V35.71c0-1.9,0-3.2.9-4.1s1.8-.86,3.6-.86a8.46,8.46,0,0,1,.18-.87Zm7.85,6.55v-.72c0-.25-.11-.43-.4-.43h-2.2a.4.4,0,0,0-.43.43v.72Zm0,3.28h-3v1.15h3Zm0,4.43h-3v.72a.4.4,0,0,0,.43.43H150a.38.38,0,0,0,.4-.43Z"/><path class="cls-2" d="M172.45,35.57c-1.65,0-2.59-1.44-2.59-3.17,0-2.59,1.51-2.84,2.81-3a5,5,0,0,0,4.17-3.46c.51-1.37.94-2.45,3.28-2.45s3.17,1.41,3.17,2.34v25.6c0,1.33-.29,3.38-3.75,3.38-2.34,0-4-.58-4-3.38V35.57Z"/><path d="M221.7,19.47a44,44,0,0,1,5.7,3c1.72,1,2.12,1.36,2.12,2.1a2.05,2.05,0,0,1-1.76,2c-.52,0-.8-.22-2-1.14a32.88,32.88,0,0,0-4.08-2.72v9c0,.42,0,1.5-1.5,1.5-1.34,0-1.72-.52-1.72-1.5V17.87h-5.77a1.29,1.29,0,0,1-1.48-1.42c0-1.18.42-1.64,1.48-1.64h16.11a1.29,1.29,0,0,1,1.5,1.4c0,1.26-.5,1.66-1.5,1.66H221.7Z"/><path d="M239.76,28.13c-1.06,1.66-2.24,2.46-3.76,2.46-2.9,0-4.14-2.94-4.14-5.92,0-6.46,4.84-9.48,9.68-9.48,5.88,0,8.62,3.7,8.62,8.38,0,7.48-6.94,8.58-8.5,8.58a1.53,1.53,0,0,1-1.6-1.64c0-1.28.9-1.42,1.56-1.52,1.68-.26,5.2-.78,5.2-5.6,0-3.44-2-5-4.12-5.18C242.28,21.59,241.18,25.93,239.76,28.13Zm-4.82-3.44c0,1.64.62,2.46,1.24,2.46.82,0,1.4-1.26,1.84-2.46a30,30,0,0,0,1.56-6.4A6.27,6.27,0,0,0,234.94,24.69Z"/><path d="M263.25,21.67h4.68a1.23,1.23,0,0,1,1.38,1.4c0,1.28-.82,1.42-1.38,1.42h-4.68v5h6.14c.36,0,1.38,0,1.38,1.44s-.76,1.48-1.38,1.48H253.12a1.21,1.21,0,0,1-1.36-1.38c0-1.18.5-1.54,1.36-1.54h1.46V20.79c0-.38,0-1.36,1.44-1.36,1.26,0,1.64.46,1.64,1.36v8.74h2.51v-12h-6.45c-.36,0-1.38,0-1.38-1.44,0-1.26.76-1.44,1.38-1.44h15.19a1.25,1.25,0,0,1,1.38,1.42c0,1.32-.84,1.46-1.38,1.46h-5.66Z"/><path d="M286.57,15c.9,0,2.08,0,2.08,1.44s-1.34,2.54-3.84,4.08c1-.06,1.62.46,1.62.92a1.43,1.43,0,0,1-.38.86h2.66c.82,0,2.14,0,2.14,1.7,0,2.16-3,4.84-5,6.08-4.16,2.54-10.12,3-11,3a1.5,1.5,0,0,1-1.36-.52,1.75,1.75,0,0,1-.38-1.1c0-1.28.88-1.34,1.88-1.38a29.11,29.11,0,0,0,6-1,15.57,15.57,0,0,0-1.46-2,15.7,15.7,0,0,1-4.42,1.4,1.33,1.33,0,0,1-1.34-1.44c0-1,.56-1.12,1.28-1.28a22.63,22.63,0,0,0,5.84-2.36,17.17,17.17,0,0,0,2.48-1.9,25.76,25.76,0,0,1-5.56,2.38,19.67,19.67,0,0,1-4.26.94,1.4,1.4,0,0,1-1.38-1.48c0-1,.7-1.12,1.32-1.2a26,26,0,0,0,4.82-1.14c-.6-.78-1-1.24-1.66-2a8.37,8.37,0,0,1-2.62,1,1.46,1.46,0,0,1-1.3-1.52,1.15,1.15,0,0,1,.9-1.1,12.64,12.64,0,0,0,4.2-2.38,2.59,2.59,0,0,1,2-1c.62,0,1.66.14,1.56,1.1ZM279,17.47c-.06,0-.06.06-.12.1.68.64,1.46,1.42,2.16,2.2,2.08-.94,3.38-1.8,3.38-2.12s-.2-.18-.38-.18Zm4.22,7.36c-.72.5-1,.66-1.22.8a22.21,22.21,0,0,1,1.84,2.24c1.88-1,3.38-2.52,3.38-2.86,0-.18-.16-.18-.4-.18Z"/><path d="M307.69,18.71c1.74,0,2.66.62,2.66,2.66v8.48c0,2.12-1,2.66-2.66,2.66h-12c-1.64,0-2.66-.54-2.66-2.66V21.37c0-2,.92-2.66,2.66-2.66h3.7a8.21,8.21,0,0,0,.36-1.3h-6.12a1.24,1.24,0,0,1-1.46-1.3c0-1,.42-1.44,1.46-1.44h16.2a1.24,1.24,0,0,1,1.46,1.3c0,1-.42,1.44-1.46,1.44H303a11.51,11.51,0,0,1-.38,1.3Zm-10.22,2.56h-1a.45.45,0,0,0-.48.5v7.68a.44.44,0,0,0,.48.5h1Zm5.8,1.36V21.27h-3.16v1.36Zm0,3.56V24.77h-3.16v1.42Zm0,2.16h-3.16V30h3.16ZM306,21.27V30h1a.46.46,0,0,0,.5-.5V21.77a.45.45,0,0,0-.5-.5Z"/><path d="M319.32,20.25a1.28,1.28,0,0,1-1.49-1.36c0-1.06.45-1.48,1.49-1.48H323v-2A1.26,1.26,0,0,1,324.36,14c1.06,0,1.54.38,1.54,1.46v2H330a1.28,1.28,0,0,1,1.48,1.36c0,1.14-.58,1.48-1.48,1.48H326.9a21.07,21.07,0,0,0,3.06,4.6c.34.38.7.74,1,1.12a1.53,1.53,0,0,1,.56,1.2A1.8,1.8,0,0,1,330,29c-.62,0-1-.42-1.46-1.06a1.61,1.61,0,0,1,.14.74c0,1.34-.88,1.36-1.32,1.36H325.9v1.62c0,.52-.08,1.48-1.36,1.48-1,0-1.54-.34-1.54-1.48V30h-1.46a1.22,1.22,0,0,1-1.42-1.36,2,2,0,0,1,.1-.66c-.76.84-1,1.08-1.5,1.08a1.58,1.58,0,0,1-1.26-.7v3.26A1.3,1.3,0,0,1,316,33.13c-1.27,0-1.54-.66-1.54-1.48V24.21a1.05,1.05,0,0,1-.65.2,1.69,1.69,0,0,1-1.58-1.84c0-.56.12-.74,1.2-2.36a15.62,15.62,0,0,0,1.72-3.88c.51-1.78.52-1.82.81-2a1.44,1.44,0,0,1,.88-.24c.52,0,1.6.18,1.6,1.2a14.65,14.65,0,0,1-1,3.8v7.16l.94-.9a21.76,21.76,0,0,0,3.76-5.08ZM323,27.31V23.85a20.09,20.09,0,0,1-2.32,3.6,2.1,2.1,0,0,1,.86-.14Zm4.32,0c.6,0,.76.12.88.22a24.85,24.85,0,0,1-2.3-3.64v3.42Z"/><path d="M341,28.13c-1.06,1.66-2.24,2.46-3.76,2.46-2.9,0-4.14-2.94-4.14-5.92,0-6.46,4.84-9.48,9.68-9.48,5.88,0,8.62,3.7,8.62,8.38,0,7.48-6.94,8.58-8.5,8.58a1.53,1.53,0,0,1-1.6-1.64c0-1.28.9-1.42,1.56-1.52,1.68-.26,5.2-.78,5.2-5.6,0-3.44-2-5-4.12-5.18C343.5,21.59,342.4,25.93,341,28.13Zm-4.82-3.44c0,1.64.62,2.46,1.24,2.46.82,0,1.4-1.26,1.84-2.46a30,30,0,0,0,1.56-6.4A6.27,6.27,0,0,0,336.16,24.69Z"/><path d="M364,31.71c0,.36,0,1.44-1.54,1.44-1.34,0-1.56-.76-1.56-1.44V27.79h-4.46c-1.74,0-2.74-.58-2.74-2.74V19.79c0-2.16,1-2.74,2.74-2.74h4.46V15.39c0-.44,0-1.4,1.44-1.4,1.22,0,1.66.44,1.66,1.4v1.66h4.53c1.74,0,2.74.58,2.74,2.74v5.26c0,2.16-1,2.74-2.74,2.74H364ZM360.9,20h-3.46a.6.6,0,0,0-.68.68v3.56a.61.61,0,0,0,.68.68h3.46Zm3.1,4.92h3.51a.6.6,0,0,0,.68-.68V20.65a.6.6,0,0,0-.68-.68H364Z"/><path d="M378.71,15.53a1.27,1.27,0,0,1,1.36-1,3,3,0,0,1,1.18.26,1.08,1.08,0,0,1,.6,1,9.54,9.54,0,0,1-.4,2.18,6.88,6.88,0,0,1,2.92.34c2,.9,2.38,3.72,2.38,5.76,0,5.72-1.12,8.28-4.5,8.28a6.67,6.67,0,0,1-3-.72,1.32,1.32,0,0,1-.84-1.28c0-.2.08-1.58,1.3-1.58a2.46,2.46,0,0,1,1.06.26,3.75,3.75,0,0,0,1.24.26c.84,0,1.1-.42,1.36-1.64a19.37,19.37,0,0,0,.34-4c0-2-.3-2.84-2.2-2.84-.24,0-.48,0-.76,0a65.55,65.55,0,0,1-3.28,9.48c-.72,1.58-1.28,1.74-1.8,1.74a1.84,1.84,0,0,1-1.86-1.52c0-.5.18-.82.72-1.82a36.88,36.88,0,0,0,2.92-7.6l-2.18.24a1.34,1.34,0,0,1-1.46-1.52,1.31,1.31,0,0,1,1.2-1.5,29.15,29.15,0,0,1,3.2-.26C378.25,17.75,378.63,15.77,378.71,15.53ZM386,18.19a1.18,1.18,0,0,1-.3-.8,1.33,1.33,0,0,1,.56-1,1.64,1.64,0,0,1,1-.3c.36,0,.88,0,1.86,1a9.31,9.31,0,0,1,2.4,4.42,16.4,16.4,0,0,1,.42,3.38c0,.42,0,1.68-1.78,1.68a1.3,1.3,0,0,1-1.46-1.4c-.12-1.76-.3-4.54-1.78-6Z"/><path d="M404.91,20.91c3.74,0,6.34,1.74,6.34,5a5.17,5.17,0,0,1-2.62,5,12.23,12.23,0,0,1-6.18,1.26,18.69,18.69,0,0,1-5-.6,1.51,1.51,0,0,1-.82-1.4A1.36,1.36,0,0,1,398,28.73a5.41,5.41,0,0,1,.88.14,18.86,18.86,0,0,0,3.5.38,9.59,9.59,0,0,0,4.08-.78,2.5,2.5,0,0,0,1.46-2.38c0-2.3-2.7-2.38-3.38-2.38a8.75,8.75,0,0,0-5.32,1.68c-.2.14-1,.9-1.14,1a2.14,2.14,0,0,1-1,.22c-1.62,0-1.62-1.24-1.62-2a52.2,52.2,0,0,1,.36-5.44,1.29,1.29,0,0,1,1.46-1c1.14,0,1.64.46,1.64,1.32,0,.24-.16,1.64-.18,1.94-.06.62-.06.92-.08,1.26A11.45,11.45,0,0,1,404.91,20.91Zm3.36-2.62a1.71,1.71,0,0,1-1.22.28,60.08,60.08,0,0,1-7-.68c-2.18-.32-2.78-.56-2.78-1.64,0-.16,0-1.52,1.34-1.52.42,0,2.18.38,2.54.42a50.92,50.92,0,0,0,5.24.42c1.4.06,2.36.14,2.36,1.6A1.58,1.58,0,0,1,408.27,18.29Z"/><path d="M418.51,31.63a1.28,1.28,0,0,1-1.32,1.48c-1.14,0-1.42-.64-1.42-1.48V24.51a1,1,0,0,1-.74.42,1.92,1.92,0,0,1-1.62-1.86,2.69,2.69,0,0,1,.56-1.42,27.35,27.35,0,0,0,2.3-5.22c.54-1.84.56-1.92.82-2.14a1.18,1.18,0,0,1,.83-.28c.09,0,1.5,0,1.5,1.32a14.06,14.06,0,0,1-.91,3.36Zm8.89-9.78h3.9a1.26,1.26,0,0,1,1.4,1.4c0,1.16-.54,1.52-1.4,1.52h-3.9v4.84h3.4A1.25,1.25,0,0,1,432.2,31c0,1-.42,1.52-1.4,1.52H420.62a1.22,1.22,0,0,1-1.38-1.36c0-1.06.39-1.54,1.38-1.54h3.64V24.77h-4a1.24,1.24,0,0,1-1.39-1.38c0-1.16.52-1.54,1.39-1.54h4V17.93c-.64.06-2.9.16-3.24.16s-1.48,0-1.48-1.66c0-1.2.94-1.22,1.38-1.22.6,0,5-.22,7.46-.56.36-.06,2-.34,2.34-.34a1.32,1.32,0,0,1,1.36,1.46,1.21,1.21,0,0,1-.84,1.3,27.46,27.46,0,0,1-3.84.58Z"/><path d="M450.64,15.21c.34,0,1.2,0,1.2,1.06s-.84,1.08-1.2,1.08H449a4,4,0,0,1-.28.92h3c.36,0,1.22,0,1.22,1.08s-.76,1.1-1.22,1.1H435.16c-.38,0-1.22,0-1.22-1.08s.78-1.1,1.22-1.1h3.14a4.89,4.89,0,0,0-.28-.92H436.3c-.32,0-1.22,0-1.22-1.06s.88-1.08,1.22-1.08h5.58c0-.56,0-1.22,1.32-1.22a3.5,3.5,0,0,1,1.34.2,1.07,1.07,0,0,1,.38,1ZM438,28.31a11.28,11.28,0,0,1-.88,3.08c-.5,1.12-.94,1.24-1.44,1.24-.7,0-1.68-.44-1.68-1.38,0-.34.12-.54.44-1.14a12.2,12.2,0,0,0,.74-1.82c.18-.5.4-1.12,1.22-1.14C436.86,27.15,438,27.33,438,28.31Zm.44-1.16c-2.06,0-2.46-.38-2.46-2.48V23.45c0-2.06.38-2.46,2.46-2.46h10c2.06,0,2.48.36,2.48,2.46v1.22c0,2.08-.38,2.48-2.48,2.48H444.7c.76.42,1.14.64,1.14,1.22a1.47,1.47,0,0,1-1.34,1.5c-.28,0-.38-.06-1.22-.58-.22-.14-1.18-.68-1.38-.8a.92.92,0,0,1-.5-.8,1.32,1.32,0,0,1,.12-.54Zm3,2.66c0,.2.06.46.28.52s1.06,0,1.7,0h.7c1.4,0,1.5,0,1.6-.66.14-.9.6-1,1.2-1a1.8,1.8,0,0,1,1.38.48,1.15,1.15,0,0,1,.26.82,4.07,4.07,0,0,1-.74,2.36c-.54.52-1,.56-4.3.56a19.57,19.57,0,0,1-3.7-.1A1.77,1.77,0,0,1,438.6,31V29c0-.38,0-1.28,1.44-1.28,1,0,1.46.36,1.46,1.2Zm6.38-6.46V23c0-.24-.1-.38-.36-.38h-8.2A.33.33,0,0,0,439,23v.32Zm0,1.4H439v.32a.33.33,0,0,0,.36.38h8.2a.33.33,0,0,0,.36-.38Zm-2.38-6.48a4,4,0,0,0,.28-.92h-4.66a6.89,6.89,0,0,1,.34.92Zm6.36,10.62c.84,1.3.9,1.68.9,2,0,1.08-1.12,1.5-1.74,1.5s-.94-.34-1.7-1.88c-.12-.22-.68-1.12-.8-1.34a1.47,1.47,0,0,1-.16-.68,1.5,1.5,0,0,1,1.84-1.3C450.6,27.29,451,27.47,451.86,28.89Z"/><path d="M462.44,28.13c-1.06,1.66-2.24,2.46-3.76,2.46-2.9,0-4.14-2.94-4.14-5.92,0-6.46,4.84-9.48,9.68-9.48,5.88,0,8.63,3.7,8.63,8.38,0,7.48-7,8.58-8.51,8.58a1.53,1.53,0,0,1-1.6-1.64c0-1.28.9-1.42,1.56-1.52,1.68-.26,5.2-.78,5.2-5.6,0-3.44-2-5-4.12-5.18C465,21.59,463.86,25.93,462.44,28.13Zm-4.82-3.44c0,1.64.62,2.46,1.24,2.46.82,0,1.4-1.26,1.84-2.46a30,30,0,0,0,1.56-6.4A6.27,6.27,0,0,0,457.62,24.69Z"/><path d="M485.93,21.67h4.68a1.23,1.23,0,0,1,1.38,1.4c0,1.28-.82,1.42-1.38,1.42h-4.68v5h6.14c.36,0,1.38,0,1.38,1.44s-.76,1.48-1.38,1.48H475.81a1.21,1.21,0,0,1-1.36-1.38c0-1.18.5-1.54,1.36-1.54h1.46V20.79c0-.38,0-1.36,1.44-1.36,1.26,0,1.64.46,1.64,1.36v8.74h2.5v-12h-6.44c-.36,0-1.38,0-1.38-1.44,0-1.26.76-1.44,1.38-1.44h15.18A1.25,1.25,0,0,1,493,16.09c0,1.32-.84,1.46-1.38,1.46h-5.66Z"/><path d="M509.25,15c.9,0,2.08,0,2.08,1.44S510,19,507.49,20.51c1-.06,1.62.46,1.62.92a1.43,1.43,0,0,1-.38.86h2.66c.82,0,2.14,0,2.14,1.7,0,2.16-3,4.84-5,6.08-4.16,2.54-10.12,3-11,3a1.5,1.5,0,0,1-1.36-.52,1.75,1.75,0,0,1-.38-1.1c0-1.28.88-1.34,1.88-1.38a29.11,29.11,0,0,0,6-1,15.57,15.57,0,0,0-1.46-2,15.7,15.7,0,0,1-4.42,1.4,1.33,1.33,0,0,1-1.34-1.44c0-1,.56-1.12,1.28-1.28a22.63,22.63,0,0,0,5.84-2.36,17.17,17.17,0,0,0,2.48-1.9,25.76,25.76,0,0,1-5.56,2.38,19.67,19.67,0,0,1-4.26.94,1.4,1.4,0,0,1-1.38-1.48c0-1,.7-1.12,1.32-1.2A26,26,0,0,0,501,20.87c-.6-.78-1-1.24-1.66-2a8.37,8.37,0,0,1-2.62,1,1.46,1.46,0,0,1-1.3-1.52,1.15,1.15,0,0,1,.9-1.1,12.64,12.64,0,0,0,4.2-2.38,2.59,2.59,0,0,1,2-1c.62,0,1.66.14,1.56,1.1Zm-7.6,2.48c-.06,0-.06.06-.12.1.68.64,1.46,1.42,2.16,2.2,2.08-.94,3.38-1.8,3.38-2.12s-.2-.18-.38-.18Zm4.22,7.36c-.72.5-1,.66-1.22.8a22.21,22.21,0,0,1,1.84,2.24c1.88-1,3.38-2.52,3.38-2.86,0-.18-.16-.18-.4-.18Z"/><path d="M530.38,18.71c1.74,0,2.66.62,2.66,2.66v8.48c0,2.12-1,2.66-2.66,2.66h-12c-1.64,0-2.66-.54-2.66-2.66V21.37c0-2,.92-2.66,2.66-2.66h3.71a8.21,8.21,0,0,0,.36-1.3h-6.13a1.24,1.24,0,0,1-1.46-1.3c0-1,.42-1.44,1.46-1.44h16.21A1.24,1.24,0,0,1,534,16c0,1-.42,1.44-1.46,1.44h-6.82a11.51,11.51,0,0,1-.38,1.3Zm-10.22,2.56h-1a.45.45,0,0,0-.48.5v7.68a.44.44,0,0,0,.48.5h1Zm5.8,1.36V21.27h-3.17v1.36Zm0,3.56V24.77h-3.17v1.42Zm0,2.16h-3.17V30H526Zm2.74-7.08V30h1a.46.46,0,0,0,.5-.5V21.77a.45.45,0,0,0-.5-.5Z"/><path d="M542,20.25a1.27,1.27,0,0,1-1.48-1.36c0-1.06.44-1.48,1.48-1.48h3.68v-2A1.26,1.26,0,0,1,547,14c1.06,0,1.54.38,1.54,1.46v2h4.12a1.28,1.28,0,0,1,1.48,1.36c0,1.14-.58,1.48-1.48,1.48h-3.12a21.07,21.07,0,0,0,3.06,4.6c.34.38.7.74,1,1.12a1.53,1.53,0,0,1,.56,1.2,1.8,1.8,0,0,1-1.6,1.82c-.62,0-1-.42-1.46-1.06a1.61,1.61,0,0,1,.14.74c0,1.34-.88,1.36-1.32,1.36h-1.42v1.62c0,.52-.08,1.48-1.36,1.48-1,0-1.54-.34-1.54-1.48V30h-1.46a1.22,1.22,0,0,1-1.42-1.36,2,2,0,0,1,.1-.66c-.76.84-1,1.08-1.5,1.08a1.58,1.58,0,0,1-1.26-.7v3.26a1.3,1.3,0,0,1-1.42,1.48c-1.26,0-1.54-.66-1.54-1.48V24.21a1,1,0,0,1-.64.2A1.69,1.69,0,0,1,535,22.57c0-.56.12-.74,1.2-2.36a16,16,0,0,0,1.72-3.88c.5-1.78.52-1.82.8-2a1.44,1.44,0,0,1,.88-.24c.52,0,1.6.18,1.6,1.2a14.65,14.65,0,0,1-1,3.8v7.16l.94-.9a21.76,21.76,0,0,0,3.76-5.08Zm3.68,7.06V23.85a20.09,20.09,0,0,1-2.32,3.6,2.1,2.1,0,0,1,.86-.14Zm4.32,0c.6,0,.76.12.88.22a24.85,24.85,0,0,1-2.3-3.64v3.42Z"/><path d="M562.58,15.19c.12-.28.4-.74,1.44-.74.72,0,1.62.26,1.62,1.18a2.4,2.4,0,0,1-.22.84c2-.06,5.6-.2,6-.2A1.36,1.36,0,0,1,573,17.71a1.26,1.26,0,0,1-1.2,1.4c-.48.08-5.9.24-8,.28-.56.88-.58.92-.92,1.5a5.25,5.25,0,0,1,2.54-.7,3.66,3.66,0,0,1,1.76.44,3.25,3.25,0,0,1,1.2,1.28,18.41,18.41,0,0,1,3.94-1c1.37,0,1.42,1.36,1.42,1.62,0,1.22-.86,1.42-1.62,1.58-2.18.48-2.24.5-3.16.76.06.78.1,1.58.1,2,0,.92,0,2-1.52,2S566,27.77,566,27.45s0-1.12,0-1.54c-1.74.76-3,1.46-3,2.6,0,.9,1.3,1.12,3.36,1.12a29,29,0,0,0,4.16-.38,4.23,4.23,0,0,1,.76-.06c1,0,1.34.7,1.34,1.44a1.25,1.25,0,0,1-1,1.38,19.58,19.58,0,0,1-4.66.46c-3,0-4.2-.22-5.28-.66A3.07,3.07,0,0,1,559.66,29c0-3,3.4-4.8,5.74-5.86a1.55,1.55,0,0,0-1.12-.44c-2.24,0-3.88,2.08-4.38,2.72-.18.22-.9,1.18-1.06,1.38a1.58,1.58,0,0,1-1.24.6,1.56,1.56,0,0,1-1.52-1.54c0-.64.34-1,1.42-2.2a26.46,26.46,0,0,0,3.08-4.16l-2.26,0c-.44,0-1.66,0-1.66-1.46s1.16-1.42,1.6-1.42l3.78,0C562.2,16.17,562.4,15.57,562.58,15.19Z"/><path d="M590.89,17.25c2.06,0,2.12,1.3,2.12,1.9a14.67,14.67,0,0,1-5.26,9.94,17.79,17.79,0,0,1-8.26,3.34,1.56,1.56,0,0,1-1.56-1.68c0-1.06.46-1.16,2-1.52,2.92-.7,6.48-1.82,8.52-5.94a10.65,10.65,0,0,0,1-2.76c0-.32-.18-.32-.64-.32h-5.52c-.72.92-3.26,3.94-4.74,3.94a1.68,1.68,0,0,1-1.6-1.62c0-.62.1-.7,1.38-1.68a14.72,14.72,0,0,0,3.78-4.64c.6-1.16.84-1.62,1.82-1.62.7,0,1.74.38,1.74,1.24a2.91,2.91,0,0,1-.48,1.42Z"/><path d="M602.09,24.87c0,.78-.28,1.52-1.66,1.52-1,0-1.7-.36-1.7-1.52V16.65c0-.76.24-1.54,1.66-1.54,1.06,0,1.7.38,1.7,1.54Zm10-1.26a7.39,7.39,0,0,1-3.86,7.12,14.73,14.73,0,0,1-6.32,1.56,1.59,1.59,0,0,1-1.34-.5,1.81,1.81,0,0,1-.42-1.22c0-1.28.88-1.38,2-1.48,3.3-.32,4.52-1,5.34-1.86a4.47,4.47,0,0,0,1.2-3.5V16.39c0-.9.4-1.54,1.68-1.54,1,0,1.72.34,1.72,1.54Z"/><path d="M619.77,24.43a19.82,19.82,0,0,0-1.06-3.06,1.77,1.77,0,0,1-.18-.76c0-.88.92-1.28,1.6-1.28s1,.34,1.4,1.16a19,19,0,0,1,1.28,3.88c0,.9-.84,1.38-1.82,1.38S619.91,25,619.77,24.43Zm13-4.14a16.7,16.7,0,0,1-2.62,7,12.24,12.24,0,0,1-8.15,5,1.5,1.5,0,0,1-1.4-1.58c0-.86.54-1,1.8-1.42,2.14-.66,5.83-1.94,7.07-7.84a7.32,7.32,0,0,1,.48-1.88,1.23,1.23,0,0,1,1.16-.66,2.06,2.06,0,0,1,.54.08A1.28,1.28,0,0,1,632.74,20.29Zm-8.53,3.2a18.8,18.8,0,0,0-.76-2.78,2.93,2.93,0,0,1-.26-1c0-.9.9-1.26,1.58-1.26s1.12.42,1.44,1.24a21,21,0,0,1,1,3.86c0,1.36-1.52,1.36-1.88,1.36C624.51,24.89,624.31,24,624.21,23.49Z"/><path d="M651.62,17.25c2.06,0,2.12,1.3,2.12,1.9a14.67,14.67,0,0,1-5.26,9.94,17.79,17.79,0,0,1-8.26,3.34,1.56,1.56,0,0,1-1.56-1.68c0-1.06.46-1.16,2-1.52,2.92-.7,6.48-1.82,8.52-5.94a10.65,10.65,0,0,0,1-2.76c0-.32-.18-.32-.64-.32H644c-.72.92-3.26,3.94-4.74,3.94a1.68,1.68,0,0,1-1.6-1.62c0-.62.1-.7,1.38-1.68a14.72,14.72,0,0,0,3.78-4.64c.6-1.16.84-1.62,1.82-1.62.7,0,1.74.38,1.74,1.24a2.91,2.91,0,0,1-.48,1.42Z"/><path d="M670.68,23.63a7.35,7.35,0,0,1,.44,2.54c0,3.54-2.14,5.5-5.84,6.08a22,22,0,0,1-3,.28A1.53,1.53,0,0,1,660.46,31c0-1.3.92-1.3,1.94-1.3a9.9,9.9,0,0,0,4.12-.74,2.51,2.51,0,0,0,1.34-1.58,4.17,4.17,0,0,1-3,.94c-2.86,0-4.92-1.56-4.92-4,0-2.14,1.72-4,5-4a7.37,7.37,0,0,1,2.6.42l0-1.26c-3.54.06-4.8.1-7,.1a10.37,10.37,0,0,1-2.5-.1c-.3-.08-.86-.34-.86-1.36,0-1.42,1.08-1.44,1.8-1.44l3.28,0c2.16,0,3,0,5.2-.08l0-.54c0-.42,0-1.64,1.6-1.64s1.64,1.18,1.64,1.6v.5c.44,0,2.42-.08,2.84-.08.66,0,1.56.14,1.56,1.42s-.92,1.44-1.6,1.46c-.4,0-.64,0-2.8.06Zm-3.14.66c0-1.54-1.88-1.6-2.2-1.6-.9,0-2.3.38-2.3,1.6,0,1.44,1.74,1.6,2.24,1.6C666.4,25.89,667.54,25.43,667.54,24.29Z"/><path d="M688.75,20.61a7.81,7.81,0,0,1,3.2.68,5.13,5.13,0,0,1,2.86,4.86,5.84,5.84,0,0,1-3.56,5.52,11.17,11.17,0,0,1-4.64.84,7.84,7.84,0,0,1-4.48-1,3,3,0,0,1-1.4-2.56c0-2.46,2.12-3.58,4.4-3.58,1.26,0,4.06.34,4.06,3.38a3.28,3.28,0,0,1-.1.74,3.06,3.06,0,0,0,2.38-3,2.87,2.87,0,0,0-1.76-2.74,5.82,5.82,0,0,0-2.24-.36A9.05,9.05,0,0,0,681.11,26c-1.32,1.22-1.44,1.3-2,1.3a1.73,1.73,0,0,1-1.66-1.7c0-.68.23-.86,1.66-1.9,2.62-1.9,4.56-3.36,6.7-5.06a7.6,7.6,0,0,0,.68-.58c-.9,0-5.22.34-5.66.34a1.39,1.39,0,0,1-1.6-1.54c0-1.42,1.06-1.5,1.7-1.52,5.18-.08,5.64-.08,8.14-.18l1.06,0c.6,0,1.86,0,1.86,1.4,0,1-.26,1.2-2.54,2.58-1.22.74-2.1,1.42-2.62,1.8A5.73,5.73,0,0,1,688.75,20.61Zm-2,8.58c0-1.08-.76-1.38-1.58-1.38s-1.62.4-1.62,1,.86,1.12,2.26,1.12a4.35,4.35,0,0,0,.84-.1A2.63,2.63,0,0,0,686.73,29.19Z"/><path d="M713.33,17.91a1.57,1.57,0,0,1,1.62,1.7c0,1.2-.82,1.44-2.12,1.68a31.76,31.76,0,0,0-8.14,2.42c-.68.34-2.82,1.42-2.82,3.22,0,1.6,1.24,2.2,4.84,2.2a29.74,29.74,0,0,0,5-.44,12,12,0,0,1,1.42-.18,1.44,1.44,0,0,1,1.6,1.64c0,1.08-.6,1.4-1.42,1.6a34.31,34.31,0,0,1-6.06.48c-3.26,0-8.78-.26-8.78-5a5.85,5.85,0,0,1,2.5-4.7,19,19,0,0,1,3.1-1.76,27.54,27.54,0,0,0-.8-3.48,7.82,7.82,0,0,1-.4-1.72c0-1,.92-1.4,1.78-1.4,1.42,0,1.54.6,1.94,2.62,0,.12.46,2.62.48,2.82A32.13,32.13,0,0,1,713.33,17.91Z"/><path d="M734.08,20.91c.74,0,1.86,0,1.86,1.46s-1,1.6-2.1,1.6c-2.48,0-3.45,0-5,.64a3.49,3.49,0,0,0-2.46,3,1.27,1.27,0,0,0,.8,1.34,5.71,5.71,0,0,0,2.28.4c.4,0,2.13-.08,2.49-.08a1.37,1.37,0,0,1,1.56,1.46c0,1.74-1.42,1.74-3.05,1.74a17.08,17.08,0,0,1-4.22-.48c-1.9-.54-3.3-1.78-3.3-3.62,0-2.38,2.08-3.82,3.16-4.56-1.3.2-3.4.5-4.68.74-.28,0-1.5.3-1.74.34a3,3,0,0,1-.4,0c-.9,0-1.46-.66-1.46-1.7,0-1.28.86-1.4,2-1.54,1.28-.16,2.26-.36,4.88-2,.52-.34,2.38-1.52,2.88-1.92a9.58,9.58,0,0,0-1,0c-1.46.12-3.16.24-4.36.24a1.29,1.29,0,0,1-1.5-1.42c0-1.42.8-1.56,1.6-1.56l6.63-.1,2.12-.06c.56,0,1.88,0,1.88,1.54,0,.8-.26,1.28-1.34,1.94a48,48,0,0,1-5.31,3.06C729,21.19,733.52,20.91,734.08,20.91Z"/><path d="M745.86,28.13c-1.06,1.66-2.24,2.46-3.76,2.46-2.9,0-4.14-2.94-4.14-5.92,0-6.46,4.84-9.48,9.68-9.48,5.88,0,8.62,3.7,8.62,8.38,0,7.48-6.94,8.58-8.5,8.58a1.53,1.53,0,0,1-1.6-1.64c0-1.28.9-1.42,1.56-1.52,1.68-.26,5.2-.78,5.2-5.6,0-3.44-2-5-4.12-5.18C748.38,21.59,747.28,25.93,745.86,28.13ZM741,24.69c0,1.64.62,2.46,1.24,2.46.82,0,1.4-1.26,1.84-2.46a30,30,0,0,0,1.56-6.4A6.27,6.27,0,0,0,741,24.69Z"/><path d="M775.48,29.77a1.34,1.34,0,0,1,1.44,1.42,1.37,1.37,0,0,1-1.46,1.46h-9.12c-2.94,0-4.06-1.28-4.56-1.84-1.5,2-1.9,2.08-2.32,2.08a1.88,1.88,0,0,1-1.7-1.8c0-.62.32-.9.82-1.3l1.6-1.24V24.49c0-.16,0-.32-.26-.32h-.66c-.46,0-1.42,0-1.42-1.44s.78-1.46,1.42-1.46h1.16c2.06,0,2.48.36,2.48,2.46v3.8c0,2.24,2.56,2.24,3.64,2.24Zm-13.72-13.9a14.47,14.47,0,0,1,1.26,1.4,1.2,1.2,0,0,1,.24.72,1.62,1.62,0,0,1-1.58,1.58c-.5,0-.56-.18-1.68-1.28-.1-.08-1.22-1.18-1.46-1.42a1.24,1.24,0,0,1-.46-1,1.64,1.64,0,0,1,1.56-1.54C760,14.35,760.26,14.35,761.76,15.87Zm13.46,6c.3,0,1.12,0,1.12,1s-.82,1-1.12,1h-1.46v.8h1.88c.34,0,1.18,0,1.18,1s-.76,1-1.18,1h-3.1c.16.06.8.3.94.34a18,18,0,0,0,2,.48.94.94,0,0,1,.8,1,1.19,1.19,0,0,1-1.18,1.24,9.84,9.84,0,0,1-2.46-.6c-1.44-.52-1.74-.66-1.74-1.28a1.22,1.22,0,0,1,.92-1.16H768a1.25,1.25,0,0,1,.92,1.18c0,.48-.22.66-1.16,1.06a8.92,8.92,0,0,1-2.62.72,1.22,1.22,0,0,1-1.36-1.28c0-.74.36-.82,1.58-1.06a9,9,0,0,0,1.78-.54l.24-.08h-3.06c-.32,0-1.2,0-1.2-1s.68-1.06,1.2-1.06H766v-.8h-1.36c-.28,0-1.12,0-1.12-.94s.8-1,1.12-1H766a1.28,1.28,0,0,1,.08-.62c-2.4,0-2.82,0-2.82-1.88v-.6c0-1.58.28-1.88,1.88-1.88h1.42c.32,0,.34-.2.34-.3s0-.24-.34-.24h-2.54c-.3,0-1,0-1-.9s.6-.9,1-.9h3.48c1.32,0,1.88.12,1.88,1.72v.6c0,1.56-.52,1.72-1.88,1.72h-1.4a.31.31,0,0,0-.34.34v.3c0,.42.12.42.68.42.84,0,.84,0,1-.3s.38-.6,1-.6,1.24.18,1.24.88c0,.32-.18,1.4-1,1.58a1,1,0,0,1,.14.66H771c0-.42,0-.44.14-.66-1.14-.12-1.22-.74-1.22-1.84v-.6c0-1.56.28-1.88,1.88-1.88h1.44c.34,0,.34-.18.34-.3s-.2-.24-.34-.24h-2.62c-.28,0-1,0-1-.9s.6-.9,1-.9h3.56c1.32,0,1.88.12,1.88,1.72v.6c0,1.56-.52,1.72-1.88,1.72h-1.46a.31.31,0,0,0-.34.34v.28c0,.44.24.44,1,.44s.86,0,1-.4a.73.73,0,0,1,.82-.52c.54,0,1.46.18,1.46.94,0,0-.06,1.32-1.16,1.52a16.23,16.23,0,0,1-1.92.08,1.35,1.35,0,0,1,.1.6ZM771,23.79H768.8v.8H771Z"/><path d="M783.48,30.63c0,2.4-1.44,2.4-3.06,2.4-.8,0-2.08,0-2.08-1.6A1.26,1.26,0,0,1,779.72,30c.68,0,.94,0,.94-.6V26.73a4.28,4.28,0,0,1-1.36.32c-1.16,0-1.26-1.4-1.26-1.74a1.17,1.17,0,0,1,.9-1.24c.26-.08,1.48-.38,1.72-.46V20.29h-1.14c-.46,0-1.42,0-1.42-1.44,0-1.24.7-1.46,1.42-1.46h1.14V15.53A1.25,1.25,0,0,1,782,14.07c1,0,1.5.38,1.5,1.46v1.86H784a1.26,1.26,0,0,1,1.43,1.44c0,1.24-.73,1.46-1.43,1.46h-.54v2.46a2.35,2.35,0,0,1,.93-.24c1.13,0,1.2,1.38,1.2,1.62,0,.88-.38,1-2.13,1.68Zm10-6.78a11.57,11.57,0,0,0,1.22,3.86,10.59,10.59,0,0,0,2.1,2.7,1.39,1.39,0,0,1,.36.94,1.65,1.65,0,0,1-1.64,1.6c-.42,0-.84-.12-1.64-1a15.18,15.18,0,0,1-3.28-8.1h-1.78a19.5,19.5,0,0,1-1.28,6.78c-.91,2.3-1.41,2.34-1.95,2.34a1.68,1.68,0,0,1-1.78-1.48c0-.32.08-.46.74-1.78a13.14,13.14,0,0,0,1.38-6.42V17.05c0-1.92.91-2.42,2.43-2.42H794c1.56,0,2.42.54,2.42,2.42v4.38c0,1.9-.88,2.42-2.42,2.42ZM788.85,21h4.08a.51.51,0,0,0,.56-.54V17.93a.5.5,0,0,0-.56-.54h-3.54a.49.49,0,0,0-.54.54Z"/><path d="M804.19,16.29c0,.2-.12,2.84-.14,3.24-.14,2.74-.18,3.56-.18,5.86,0,2,.14,3.9,3.52,3.9s5.18-1.5,5.74-4.58c.22-1.2.38-2,1.7-2,.3,0,1.8,0,1.8,1.46a9.54,9.54,0,0,1-1.88,5.18c-1.6,2.14-4.1,3-7.26,3-3,0-4.78-.74-5.9-2.26-.54-.72-1-1.66-1-5.38,0-1.38.14-8.46.16-8.62.08-.84.36-1.5,1.78-1.5A1.47,1.47,0,0,1,804.19,16.29Z"/><path d="M823.71,15a1.41,1.41,0,0,1,1.2-.5c.78,0,1.7.24,1.7,1.34a8.25,8.25,0,0,1-.16,1.2c1.6,0,3.54-.08,4.8-.14.25,0,1.33-.08,1.54-.08a1.38,1.38,0,0,1,1.59,1.5c0,1.36-1,1.44-1.63,1.48-2.06.1-4.6.18-6.88.24-.52,2.54-3,11.1-3.78,12a1.3,1.3,0,0,1-1,.4c-.56,0-1.84-.3-1.84-1.44a4.73,4.73,0,0,1,.52-1.58,53.08,53.08,0,0,0,2.32-6.86c.22-.86.46-1.92.58-2.42a7.48,7.48,0,0,1-2.68-.18,1.41,1.41,0,0,1-.6-1.28c0-1.24.64-1.52,1.64-1.52h2.16C823.47,15.47,823.49,15.29,823.71,15Zm8.88,17.24c-4.74,0-6.82-.76-6.82-3.38,0-.26,0-2.44,2-2.44.72,0,1.5.3,1.5,1a1.21,1.21,0,0,1-.1.46,1.37,1.37,0,0,0-.14.58c0,.36.22.6.94.72a10.06,10.06,0,0,0,1.68.12,26.06,26.06,0,0,0,3-.2c.24,0,.68-.08.9-.08a1.28,1.28,0,0,1,1.4,1.44C836.88,31.91,836.18,32.25,832.59,32.25Zm3.23-8a1.39,1.39,0,0,1-1,.26c-.34,0-1.85-.08-2.15-.08-1.25,0-1.79,0-3.7.18a5.85,5.85,0,0,1-.72,0,1.34,1.34,0,0,1-1.32-1.5,1.35,1.35,0,0,1,1.2-1.42,28.79,28.79,0,0,1,5-.34c3,0,3.24.5,3.24,1.74A1.54,1.54,0,0,1,835.82,24.27Z"/><path d="M850.32,21.67H855a1.23,1.23,0,0,1,1.38,1.4c0,1.28-.82,1.42-1.38,1.42h-4.68v5h6.14c.36,0,1.38,0,1.38,1.44s-.76,1.48-1.38,1.48H840.2a1.21,1.21,0,0,1-1.36-1.38c0-1.18.5-1.54,1.36-1.54h1.46V20.79c0-.38,0-1.36,1.44-1.36,1.26,0,1.64.46,1.64,1.36v8.74h2.5v-12H840.8c-.36,0-1.38,0-1.38-1.44,0-1.26.76-1.44,1.38-1.44H856a1.25,1.25,0,0,1,1.38,1.42c0,1.32-.84,1.46-1.38,1.46h-5.66Z"/><path d="M873.64,15c.9,0,2.08,0,2.08,1.44s-1.34,2.54-3.84,4.08c1-.06,1.62.46,1.62.92a1.43,1.43,0,0,1-.38.86h2.66c.82,0,2.14,0,2.14,1.7,0,2.16-3,4.84-5,6.08-4.16,2.54-10.12,3-11,3a1.5,1.5,0,0,1-1.36-.52,1.75,1.75,0,0,1-.38-1.1c0-1.28.88-1.34,1.88-1.38a29.11,29.11,0,0,0,6-1,15.57,15.57,0,0,0-1.46-2,15.7,15.7,0,0,1-4.42,1.4,1.33,1.33,0,0,1-1.34-1.44c0-1,.56-1.12,1.28-1.28a22.63,22.63,0,0,0,5.84-2.36,17.17,17.17,0,0,0,2.48-1.9,25.76,25.76,0,0,1-5.56,2.38,19.67,19.67,0,0,1-4.26.94,1.4,1.4,0,0,1-1.38-1.48c0-1,.7-1.12,1.32-1.2a26,26,0,0,0,4.82-1.14c-.6-.78-1-1.24-1.66-2a8.37,8.37,0,0,1-2.62,1,1.46,1.46,0,0,1-1.3-1.52,1.15,1.15,0,0,1,.9-1.1,12.64,12.64,0,0,0,4.2-2.38,2.59,2.59,0,0,1,2-1c.62,0,1.66.14,1.56,1.1ZM866,17.47c-.06,0-.06.06-.12.1.68.64,1.46,1.42,2.16,2.2,2.08-.94,3.38-1.8,3.38-2.12s-.2-.18-.38-.18Zm4.22,7.36c-.72.5-1,.66-1.22.8a22.21,22.21,0,0,1,1.84,2.24c1.88-1,3.38-2.52,3.38-2.86,0-.18-.16-.18-.4-.18Z"/><path d="M894.77,18.71c1.74,0,2.66.62,2.66,2.66v8.48c0,2.12-1,2.66-2.66,2.66h-12c-1.64,0-2.66-.54-2.66-2.66V21.37c0-2,.92-2.66,2.66-2.66h3.71a9.82,9.82,0,0,0,.35-1.3h-6.12a1.24,1.24,0,0,1-1.46-1.3c0-1,.42-1.44,1.46-1.44h16.21a1.24,1.24,0,0,1,1.46,1.3c0,1-.42,1.44-1.46,1.44h-6.82a11.51,11.51,0,0,1-.38,1.3Zm-10.23,2.56h-1a.45.45,0,0,0-.48.5v7.68a.44.44,0,0,0,.48.5h1Zm5.81,1.36V21.27h-3.17v1.36Zm0,3.56V24.77h-3.17v1.42Zm0,2.16h-3.17V30h3.17Zm2.74-7.08V30h1a.46.46,0,0,0,.5-.5V21.77a.45.45,0,0,0-.5-.5Z"/><path d="M906.39,20.25a1.27,1.27,0,0,1-1.48-1.36c0-1.06.44-1.48,1.48-1.48h3.68v-2A1.26,1.26,0,0,1,911.43,14c1.06,0,1.54.38,1.54,1.46v2h4.12a1.28,1.28,0,0,1,1.48,1.36c0,1.14-.58,1.48-1.48,1.48H914a21.07,21.07,0,0,0,3.06,4.6c.34.38.7.74,1,1.12a1.53,1.53,0,0,1,.56,1.2A1.8,1.8,0,0,1,917,29c-.62,0-1-.42-1.46-1.06a1.61,1.61,0,0,1,.14.74c0,1.34-.88,1.36-1.32,1.36H913v1.62c0,.52-.08,1.48-1.36,1.48-1,0-1.54-.34-1.54-1.48V30h-1.46a1.22,1.22,0,0,1-1.42-1.36,2,2,0,0,1,.1-.66c-.76.84-1,1.08-1.5,1.08a1.58,1.58,0,0,1-1.26-.7v3.26a1.3,1.3,0,0,1-1.42,1.48c-1.26,0-1.54-.66-1.54-1.48V24.21a1,1,0,0,1-.64.2,1.69,1.69,0,0,1-1.58-1.84c0-.56.12-.74,1.2-2.36a16,16,0,0,0,1.72-3.88c.5-1.78.52-1.82.8-2a1.44,1.44,0,0,1,.88-.24c.52,0,1.6.18,1.6,1.2a14.65,14.65,0,0,1-1,3.8v7.16l.94-.9a21.76,21.76,0,0,0,3.76-5.08Zm3.68,7.06V23.85a20.09,20.09,0,0,1-2.32,3.6,2.1,2.1,0,0,1,.86-.14Zm4.32,0c.6,0,.76.12.88.22a24.85,24.85,0,0,1-2.3-3.64v3.42Z"/><path d="M929.09,30.45a3.32,3.32,0,0,1,.08.74c0,1.34-1.42,1.42-1.8,1.42-1.3,0-1.48-.88-1.62-1.74a81.12,81.12,0,0,0-1.72-8c-.2.08-1.1.5-1.28.58a2.38,2.38,0,0,1-1.06.3,1.55,1.55,0,0,1-1.44-1.68c0-1,.5-1.22,3-2.18-.14-.54-.3-1.08-.46-1.58a5.12,5.12,0,0,1-.4-1.64c0-1.38,1.58-1.4,1.74-1.4a1.33,1.33,0,0,1,1.36.82,16.38,16.38,0,0,1,.78,2.72c.82-.28,1.72-.58,2.44-.8a11.49,11.49,0,0,0-.46-1.1,2.47,2.47,0,0,1-.34-1c0-1.06,1.2-1.28,1.64-1.28,1.1,0,1.38.72,2.18,2.72a9.71,9.71,0,0,1,1.46-.1c3.6,0,5.15,2.48,5.15,5.2a6.15,6.15,0,0,1-2,4.76,6.39,6.39,0,0,1-3.87,1.14c-.78,0-2.42,0-2.42-1.7a1.25,1.25,0,0,1,1.28-1.42c.18,0,1,.08,1.2.08a2.55,2.55,0,0,0,2.66-2.8c0-1.28-.36-2.54-2.52-2.46a7,7,0,0,1,.36,1.74c0,.86-.7,1.4-1.7,1.4a1.18,1.18,0,0,1-1.32-.88c-.08-.24-.38-1.34-.46-1.56l-2.58.92C928.55,27.93,928.77,28.75,929.09,30.45Z"/><path d="M956.76,20.91c.74,0,1.86,0,1.86,1.46s-1,1.6-2.1,1.6c-2.48,0-3.44,0-5,.64a3.49,3.49,0,0,0-2.46,3,1.27,1.27,0,0,0,.8,1.34,5.71,5.71,0,0,0,2.28.4c.4,0,2.12-.08,2.48-.08a1.37,1.37,0,0,1,1.56,1.46c0,1.74-1.42,1.74-3,1.74A17,17,0,0,1,948.9,32c-1.9-.54-3.3-1.78-3.3-3.62,0-2.38,2.08-3.82,3.16-4.56-1.3.2-3.4.5-4.68.74-.28,0-1.5.3-1.75.34a2.72,2.72,0,0,1-.39,0c-.9,0-1.47-.66-1.47-1.7,0-1.28.86-1.4,2-1.54s2.26-.36,4.88-2c.52-.34,2.38-1.52,2.88-1.92a9.58,9.58,0,0,0-1,0c-1.46.12-3.16.24-4.36.24a1.29,1.29,0,0,1-1.5-1.42c0-1.42.8-1.56,1.6-1.56l6.62-.1,2.12-.06c.56,0,1.88,0,1.88,1.54,0,.8-.26,1.28-1.34,1.94a47.23,47.23,0,0,1-5.3,3.06C951.66,21.19,956.2,20.91,956.76,20.91Z"/><path d="M968.54,28.13c-1.06,1.66-2.24,2.46-3.76,2.46-2.9,0-4.14-2.94-4.14-5.92,0-6.46,4.84-9.48,9.68-9.48,5.88,0,8.62,3.7,8.62,8.38,0,7.48-6.94,8.58-8.5,8.58a1.53,1.53,0,0,1-1.6-1.64c0-1.28.9-1.42,1.56-1.52,1.68-.26,5.2-.78,5.2-5.6,0-3.44-2-5-4.12-5.18C971.06,21.59,970,25.93,968.54,28.13Zm-4.82-3.44c0,1.64.62,2.46,1.24,2.46.82,0,1.4-1.26,1.84-2.46a30,30,0,0,0,1.56-6.4A6.27,6.27,0,0,0,963.72,24.69Z"/><path d="M996.27,21.21h1.54c.94,0,1.22.4,1.22,1.22,0,1.08-.84,1.1-1.22,1.1h-1.54v1h2a1.16,1.16,0,1,1,0,2.32H998a1.12,1.12,0,0,1,.44.88c0,.84-1.06,1.64-1.56,2,.3.12,1.68.56,1.84.66a1.09,1.09,0,0,1,.58,1,1.58,1.58,0,0,1-1.56,1.62,9.67,9.67,0,0,1-4.9-2.36,9.09,9.09,0,0,1-2.52-3.82h-1.12v3c.63-.06,1.62-.16,1.91-.16A1.13,1.13,0,0,1,992.25,31a1.2,1.2,0,0,1-1,1.3,51.64,51.64,0,0,1-5.89.62c-1.2,0-1.2-1.26-1.2-1.42,0-1.32,1-1.36,2.1-1.42V26.89H984.5a38.64,38.64,0,0,1-.68,4.2c-.2.78-.5,1.86-1.52,1.86-.48,0-1.78-.4-1.78-1.54a7.92,7.92,0,0,1,.52-2.12,24.11,24.11,0,0,0,.74-6V17.07c0-2.1.4-2.48,2.48-2.48h12c2.1,0,2.48.42,2.48,2.48v.7c0,2.26-.54,2.46-2.7,2.46a.89.89,0,0,1,.18.52Zm-8.67-.46a.84.84,0,0,1,.16-.52h-3.08v3.08c0,.58,0,.86,0,1.26h2.94v-1H986c-.38,0-1.2,0-1.2-1.08,0-.82.24-1.24,1.2-1.24h1.56ZM985,17c-.22,0-.34.1-.34.32v.78h10.77a.31.31,0,0,0,.34-.34v-.44c0-.2-.1-.32-.34-.32Zm5.31,4.2h3.12v-.46a.92.92,0,0,1,.16-.52h-3.49a.83.83,0,0,1,.21.52Zm3.12,2.32h-3.12v1h3.12Zm-.28,3.36a4.77,4.77,0,0,0,1.36,1.6c.22-.22,1.18-1.36,1.42-1.6Z"/><path d="M1004.15,31.79a1.14,1.14,0,0,1-1.3,1.3c-1.1,0-1.48-.42-1.48-1.3V17.05c0-1.86.88-2.38,2.38-2.38h3.64c1.58,0,2.38.58,2.38,2.38v2.38c0,1.8-.8,2.38-2.38,2.38h-3.24Zm3-14.4V17a.35.35,0,0,0-.38-.38h-2.2a.35.35,0,0,0-.38.38v.42Zm0,1.7h-3v.8h2.58a.33.33,0,0,0,.38-.36Zm7.58,7a1.07,1.07,0,0,1,1.24,1.22,1.07,1.07,0,0,1-1.24,1.22h-.78v3c0,.36,0,1.26-1.26,1.26s-1.42-.52-1.42-1.26v-3h-1.78c-.34,2.52-1.8,4.2-2.7,4.2a1.59,1.59,0,0,1-1.58-1.48c0-.4.2-.6.52-1a3.53,3.53,0,0,0,1-1.76h-.82a1.09,1.09,0,0,1-1.26-1.2,1.1,1.1,0,0,1,1.26-1.24h1V24.81h-.74a1.07,1.07,0,0,1-1.18-1.18,1.09,1.09,0,0,1,1.26-1.2h8.22a1.09,1.09,0,0,1,1.26,1.18,1.06,1.06,0,0,1-1.12,1.2h-.62v1.28Zm-3.46,0V24.81h-1.66v1.28Zm1.88-4.28c-1.44,0-2.36-.48-2.36-2.38V17.05c0-1.88.88-2.38,2.36-2.38h3.7c1.54,0,2.38.54,2.38,2.38V30.37c0,2.14-.36,2.62-3.18,2.62-.82,0-2,0-2-1.58,0-1.36.9-1.4,1.28-1.4h.76c.38,0,.42-.18.42-.6v-7.6Zm.4-4.42h2.92V17a.35.35,0,0,0-.38-.38h-2.16a.35.35,0,0,0-.38.38Zm0,1.7v.44a.33.33,0,0,0,.38.36h2.54v-.8Z"/><path d="M1039.25,29.79c0,2.14-1,2.74-2.74,2.74h-12c-1.7,0-2.72-.56-2.72-2.74V17.41c0-2.16,1-2.74,2.72-2.74h12c1.76,0,2.74.62,2.74,2.74Zm-2.94-11.66a.62.62,0,0,0-.68-.68h-10.18a.61.61,0,0,0-.66.68V29a.59.59,0,0,0,.66.66h10.18a.61.61,0,0,0,.68-.66Zm-10.4,2.06a2.26,2.26,0,0,1-.26-1c0-.88,1-1.08,1.42-1.08.66,0,.88.3,1.24,1.18a7.25,7.25,0,0,1,.6,2,1.24,1.24,0,0,1-1.14,1.12c.08,0,2.12.92,2.94,1.32a16,16,0,0,0,2.72-4.28c.28-.62.52-1,1.16-1s1.66.44,1.66,1.26-1.36,3.4-3,5.38a22.3,22.3,0,0,1,2,1.28,1.2,1.2,0,0,1,.58,1,1.7,1.7,0,0,1-1.52,1.7,1.73,1.73,0,0,1-1.16-.52c-.38-.3-1-.68-2-1.36a20.17,20.17,0,0,1-2.8,1.88,2.39,2.39,0,0,1-1.3.42,1.5,1.5,0,0,1-1.5-1.52c0-.74.46-.94,1.32-1.36a17.16,17.16,0,0,0,1.58-.92c-.72-.36-.88-.42-2.4-1.06-.68-.28-.92-.6-.92-1.12s.44-1.64,1.46-1.5C1026.43,21.81,1026,20.45,1025.91,20.19Zm6.24-1.32a6.4,6.4,0,0,1,.48,1.86c0,.92-.94,1.14-1.4,1.14-.86,0-1-.36-1.22-1.26-.12-.38-.24-.72-.38-1.1a2.18,2.18,0,0,1-.24-.9c0-.7.74-1,1.48-1S1031.83,18,1032.15,18.87Z"/><path d="M1046.66,15.53a1.28,1.28,0,0,1,1.36-1c.66,0,1.78.18,1.78,1.3a13.28,13.28,0,0,1-.4,2.18,6.79,6.79,0,0,1,2.94.34c2,.9,2.4,3.72,2.4,5.76,0,5.7-1.12,8.28-4.52,8.28a6.67,6.67,0,0,1-3-.72,1.34,1.34,0,0,1-.84-1.26c0-.18.08-1.6,1.32-1.6a2.34,2.34,0,0,1,1,.26,4,4,0,0,0,1.24.26c.86,0,1.12-.42,1.38-1.64a21.23,21.23,0,0,0,.32-4c0-2.08-.3-2.84-2.2-2.84-.28,0-.58,0-.78,0A74.76,74.76,0,0,1,1046,29c-1,2.54-1.5,3.16-2.43,3.16a1.85,1.85,0,0,1-1.86-1.54c0-.5.19-.8.74-1.8a38.74,38.74,0,0,0,2.91-7.6c-1.5.16-2.05.22-2.18.22a1.34,1.34,0,0,1-1.45-1.52,1.35,1.35,0,0,1,.87-1.42,17.75,17.75,0,0,1,3.5-.34C1046.22,17.75,1046.56,15.89,1046.66,15.53Zm7.24,2.94a1.18,1.18,0,0,1-.3-.8,1.33,1.33,0,0,1,.56-1,1.64,1.64,0,0,1,1-.3c1.26,0,2.76,1.78,3.46,3.2a13.66,13.66,0,0,1,1.26,5.56c0,.42,0,1.7-1.76,1.7a1.3,1.3,0,0,1-1.48-1.42c-.14-1.9-.36-4.52-1.82-6ZM1056,15a1.2,1.2,0,0,1-.12-.46c0-.4.5-.64.8-.64s.56.28.94.94a4.55,4.55,0,0,1,.68,1.74c0,.54-.58.68-.78.68s-.38,0-.6-.44c-.06-.14-.38-.8-.44-.94S1056.1,15.19,1056,15Zm2.32-.34a1.06,1.06,0,0,1-.1-.46c0-.4.48-.64.8-.64s.54.28.9.92a5.2,5.2,0,0,1,.7,1.76c0,.46-.48.66-.78.66a.61.61,0,0,1-.6-.42c-.08-.16-.38-.82-.44-.94S1058.4,14.85,1058.32,14.69Z"/><path d="M219.12,59.33l-.24,0a1.1,1.1,0,0,1-.84-.44v5.3c0,2.1-.4,2.48-2.44,2.48H215c-2.07,0-2.45-.4-2.45-2.48V59.75c-.63.1-1.44-.64-1.44-1.56,0-.4.08-.68.68-1.76a13.25,13.25,0,0,0,1.6-5h-.66a1.27,1.27,0,0,1-1.3-1.4,1.3,1.3,0,0,1,1.49-1.36h4.22a1.28,1.28,0,0,1,1.42.88,4.41,4.41,0,0,1,1.52-.14H222c.28-1.1.38-1.48,1.54-1.48.54,0,1.48.12,1.48,1a3,3,0,0,1-.06.52h2.48c2.06,0,2.48.38,2.48,2.46v.7c0,.78-.22,1.26-1.4,1.26-.68,0-.94-.22-1.1-.46a1.43,1.43,0,0,1-.32.92h1.72a1.18,1.18,0,1,1,0,2.36H226.6v1.06h1.78c.32,0,1.22,0,1.22,1.08s-.9,1.06-1.22,1.06H226.6V61h1.78a1.08,1.08,0,1,1,0,2.14H226.6v1.16H229c.56,0,1.28.14,1.28,1.24A1.1,1.1,0,0,1,229,66.71h-7.54c-1.54,0-2.36-.54-2.36-2.36ZM215.82,58c0-.2-.1-.34-.36-.34s-.56,0-.56.34v5.64a.31.31,0,0,0,.34.34c.36,0,.58,0,.58-.34Zm4.58-5.92a.33.33,0,0,0-.36.38v.5a1.07,1.07,0,0,1-1.16,1.24c-1,0-1.28-.42-1.28-1.24v-1.5a1.57,1.57,0,0,1-.46,0H216a17.56,17.56,0,0,1-.73,3.48h.29c1.2,0,2.24,0,2.44,1.52a10.12,10.12,0,0,0,3.22-4.42Zm3.58,5.7V56.63h-1.72a.33.33,0,0,0-.36.38v.74Zm0,2H221.9V61H224Zm0,4.46V63H221.9v.88a.33.33,0,0,0,.36.36Zm.2-12.2a14.07,14.07,0,0,1-1,2.28h1.12c.12-.22.5-1,.62-1.22a1.4,1.4,0,0,1,1.12-.44,1.65,1.65,0,0,1,1.2.4,1,1,0,0,1,0-.24v-.4a.34.34,0,0,0-.36-.38Z"/><path d="M232.43,54a1.06,1.06,0,0,1-1.24-1.16c0-1,.4-1.28,1.24-1.28h5.07a1.08,1.08,0,0,1,1.24,1.22c0,1.12-.72,1.22-1.24,1.22Zm.5-3a1.07,1.07,0,0,1-1.24-1.18c0-1.08.73-1.18,1.24-1.18h4a1.18,1.18,0,1,1,0,2.36Zm0,6a1.06,1.06,0,0,1-1.24-1.18c0-1.08.7-1.2,1.24-1.2h4a1.07,1.07,0,0,1,1.24,1.18c0,1.1-.72,1.2-1.24,1.2Zm0,2.94a1.07,1.07,0,0,1-1.24-1.16c0-1.08.77-1.16,1.24-1.16h4a1.07,1.07,0,0,1,1.24,1.16c0,1.16-.9,1.16-1.32,1.16ZM234,66.81c-1.89,0-2.25-.36-2.25-2.28V62.75c0-1.92.36-2.26,2.26-2.26h1.79c1.88,0,2.26.32,2.26,2.26v1.94a26.4,26.4,0,0,0,.88-3.92c.08-.6.16-1.2,1.12-1.2.62,0,1.22.2,1.22,1a22.39,22.39,0,0,1-.6,3.72c-.36,1.56-.56,2.07-1.4,2.07a1.35,1.35,0,0,1-1.28-.77c-.24,1.12-1,1.18-2.18,1.18Zm1.86-3.74a.34.34,0,0,0-.38-.38h-.78a.33.33,0,0,0-.36.38v1a.33.33,0,0,0,.36.38h.78a.34.34,0,0,0,.38-.38Zm4.24-11.94a1.29,1.29,0,1,1,0-2.58h7.08c1.18,0,2.7,0,2.7,2.44a35.17,35.17,0,0,1-.46,5.06c-.38,1.7-1,2-2.74,2-1.06,0-2.06,0-2.06-1.52a1.71,1.71,0,0,1,.16-.78.88.88,0,0,1-.5.12c-.26,0-.44,0-1.14-.4-.94,1.4-2.58,3.08-3.5,3.08a1.54,1.54,0,0,1-1.5-1.52,1.31,1.31,0,0,1,.5-1,7.72,7.72,0,0,0,1.92-1.66c-.16-.06-.84-.3-1-.36a.94.94,0,0,1-.66-1,1.29,1.29,0,0,1,1.26-1.36,6.59,6.59,0,0,1,1.56.38,6.1,6.1,0,0,0,.16-.94Zm5.2,9.8a18.54,18.54,0,0,1-2.56-.92c-1-.32-1.48-.48-1.48-1.22a1.36,1.36,0,0,1,1.32-1.42,6.89,6.89,0,0,1,2.44.7c1.38.6,1.52.84,1.52,1.46S246.14,60.93,245.34,60.93ZM244,63.53c0,.44.06.6.46.6s.56-.22.6-.88.06-1.26,1-1.26,1.06.78,1.06,1.52a6.61,6.61,0,0,1-.38,2.3c-.44,1-1.1,1-2.54,1-2.4,0-2.76-.41-2.76-2.5V61.43c0-.38,0-1.24,1.26-1.24S244,61,244,61.43Zm.86-12.4a9,9,0,0,1-.46,2c.8.36,1.24.56,1.24,1.26a1.89,1.89,0,0,1-.32.94,1.57,1.57,0,0,1,.7-.08c.58,0,.72-.2.84-.58a13.66,13.66,0,0,0,.3-2.88c0-.62-.24-.66-.7-.66ZM250,65.89a1.47,1.47,0,0,1-1.1.42c-1.08,0-1.16-.54-1.38-1.94a16.74,16.74,0,0,0-.74-2.88,3,3,0,0,1-.2-.92c0-1,1.34-1.06,1.48-1.06.8,0,1,.52,1.44,1.82a16,16,0,0,1,.86,3.44A1.3,1.3,0,0,1,250,65.89Z"/><path d="M253.29,53.31a1.68,1.68,0,0,1-.08-3.34c.84-.08,10.35-.44,14.23-.44,1.1,0,2.24,0,2.24,1.52s-1.08,1.66-2.22,1.66A8.2,8.2,0,0,0,263.24,54c-2.06,1.18-4.1,3.4-4.1,5.74,0,2.5,2.06,3.06,5.42,3.06h1.72a1.37,1.37,0,0,1,1.54,1.5c0,1.88-1.46,1.88-2.9,1.88a18.33,18.33,0,0,1-4.44-.54c-1.08-.28-4.66-1.2-4.66-5.52A7.5,7.5,0,0,1,258,54.93a10.86,10.86,0,0,1,2.62-2.14C259.54,52.87,253.82,53.31,253.29,53.31Zm10.93,2.12a1.21,1.21,0,0,1-.12-.44c0-.4.5-.64.8-.64s.54.22,1,1A6,6,0,0,1,266.5,57c0,.54-.56.68-.8.68s-.36,0-.56-.42c-.08-.14-.38-.8-.44-.94S264.28,55.57,264.22,55.43Zm2.06-1a1,1,0,0,1-.08-.36c0-.4.5-.62.78-.62s.6.32,1,1a4.72,4.72,0,0,1,.66,1.66c0,.44-.46.66-.8.66-.1,0-.36,0-.58-.42-.08-.14-.38-.8-.44-.92S266.34,54.53,266.28,54.39Z"/><path d="M279.26,49.73c0-1.16,1.32-1.36,1.8-1.36,1.1,0,1.22.42,1.74,2.16.52,0,1.44-.08,1.6-.1.38,0,2-.26,2.32-.26s1.36,0,1.36,1.38c0,1-.72,1.22-1.32,1.32s-2.72.28-3.12.3c.26.7.36.9.48,1.2,1.28-.12,2.26-.22,3.1-.34a5.26,5.26,0,0,1,1-.12,1.2,1.2,0,0,1,1.22,1.34,1.24,1.24,0,0,1-1.12,1.3,24.89,24.89,0,0,1-2.86.34A10.84,10.84,0,0,0,287,59a1.65,1.65,0,0,1,.42,1.06,1.62,1.62,0,0,1-1.62,1.58,2.79,2.79,0,0,1-.86-.2,15,15,0,0,0-5.26-.92c-2.9,0-3.32,1-3.32,1.46,0,1.4,2.78,1.5,4.12,1.5a20.46,20.46,0,0,0,4.74-.58,6.71,6.71,0,0,1,1.46-.28,1.53,1.53,0,0,1,.24,3,18.54,18.54,0,0,1-5.94.76c-2.76,0-7.91-.22-7.91-4.1,0-3.4,3.87-4.08,6.53-4.08a13.3,13.3,0,0,1,3.26.34,8.89,8.89,0,0,1-.86-1.44c-4.72.18-5.12.2-6.4.2a22.21,22.21,0,0,1-2.89-.14c-.3-.08-.73-.38-.73-1.22,0-1.2.83-1.3,1.42-1.3l2.86.06c.36,0,2.7,0,4.54-.12-.14-.34-.4-1-.5-1.24-3,.08-3.34.1-4.38.1a14.52,14.52,0,0,1-2.47-.12c-.31-.08-.74-.42-.74-1.24,0-1.34.89-1.34,1.81-1.34l3.4,0c.28,0,1.32,0,1.52-.06A3.83,3.83,0,0,1,279.26,49.73Z"/><path d="M302.8,54.75c.66,0,3.64-.08,4.24-.12l.56,0A1.23,1.23,0,0,1,309,56c0,1.3-.88,1.36-2,1.38l-4.14.1,0,1.94a19.45,19.45,0,0,1,5.6,3.14,1.65,1.65,0,0,1,.72,1.3,1.8,1.8,0,0,1-1.66,1.82c-.48,0-.76-.14-1.44-.74-.34-.3-1.2-1-2.08-1.6a11,11,0,0,0-1.14-.68c-.08,1.18-.24,3.74-4.64,3.74-3.76,0-5.81-1.62-5.81-3.86s2-3.88,5.73-3.88a11.26,11.26,0,0,1,1.52.1l0-1.22-5,0a3.79,3.79,0,0,1-1.7-.18,1.32,1.32,0,0,1-.55-1.2c0-1,.59-1.34,1.41-1.34l5.77,0,0-1.42-4.66,0h-.48a3.46,3.46,0,0,1-1.61-.18,1.34,1.34,0,0,1-.58-1.2c0-1.38,1.09-1.38,1.65-1.38l1.1,0c.72,0,3.88,0,4.54,0l0-.76c0-1.24,1-1.4,1.58-1.4.82,0,1.58.26,1.62,1.4l0,.7c.7,0,3.84-.08,4.48-.12l.58,0a1.24,1.24,0,0,1,1.4,1.38c0,1.3-.86,1.34-1.68,1.38s-4.06.1-4.74.12ZM298,61.07c-.54,0-2.52.08-2.52,1.34,0,.84.94,1.26,2.38,1.26.6,0,1.36-.08,1.68-.6.18-.32.2-.64.2-1.7A4.76,4.76,0,0,0,298,61.07Z"/><path d="M325.32,57.63a7.35,7.35,0,0,1,.44,2.54c0,3.54-2.14,5.5-5.84,6.08a22,22,0,0,1-3,.28A1.53,1.53,0,0,1,315.1,65c0-1.3.92-1.3,1.94-1.3a9.9,9.9,0,0,0,4.12-.74,2.51,2.51,0,0,0,1.34-1.58,4.17,4.17,0,0,1-3,.94c-2.86,0-4.92-1.56-4.92-4,0-2.14,1.72-4,5-4a7.37,7.37,0,0,1,2.6.42l0-1.26c-3.54.06-4.8.1-7,.1a10.5,10.5,0,0,1-2.51-.1c-.29-.08-.86-.34-.86-1.36,0-1.42,1.08-1.44,1.81-1.44l3.28,0c2.16,0,3,0,5.2-.08l0-.54c0-.42,0-1.64,1.6-1.64s1.64,1.18,1.64,1.6v.5c.44,0,2.42-.08,2.84-.08.66,0,1.56.14,1.56,1.42s-.92,1.44-1.6,1.46c-.4,0-.64,0-2.8.06Zm-3.14.66c0-1.54-1.88-1.6-2.2-1.6-.9,0-2.3.38-2.3,1.6,0,1.44,1.74,1.6,2.24,1.6C321,59.89,322.18,59.43,322.18,58.29Z"/><path d="M339.22,62.73a3.59,3.59,0,1,1-3.6-3.6A3.59,3.59,0,0,1,339.22,62.73Zm-5.4,0a1.81,1.81,0,1,0,1.8-1.82A1.81,1.81,0,0,0,333.82,62.73Z"/><path d="M358.84,63.47c.82-.12,1-.16,2.8-.48a4.86,4.86,0,0,1,.62-.08,1.24,1.24,0,0,1,1.18,1.4c0,1-.58,1.16-1.28,1.3-3.38.7-7.58,1.22-8,1.22a1,1,0,0,1-.89-.43,1.88,1.88,0,0,1-.32-1.09,1.14,1.14,0,0,1,1.17-1.26l1.79-.2v-2a10.44,10.44,0,0,1-3.34,1.26c-1.29,0-1.35-1.5-1.35-1.62,0-.9.66-1.1,1.08-1.24a13.6,13.6,0,0,0,4.55-2.2h-4.43a1.2,1.2,0,1,1,0-2.4h6.81v-.8h-5.36a1.06,1.06,0,0,1-1.25-1.08c0-1,.79-1.12,1.25-1.12h5.36v-.76h-6.31a1.06,1.06,0,0,1-1.24-1.2c0-1,.58-1.22,1.24-1.22h6.31v-.4c0-1,.94-1.1,1.38-1.1.16,0,1.12,0,1.4.34a1,1,0,0,1,.3.76v.4h6.3a1.06,1.06,0,0,1,1.24,1.2c0,1.08-.64,1.22-1.24,1.22h-6.3v.76h5.32c.4,0,1.24,0,1.24,1.1s-.66,1.1-1.24,1.1h-5.32v.8h6.8a1.08,1.08,0,0,1,1.24,1.2c0,1.1-.7,1.2-1.24,1.2h-5.8a11,11,0,0,0,1.36,2.38,12.06,12.06,0,0,0,1.6-1.34c1-1,1.06-1,1.52-1a1.58,1.58,0,0,1,1.6,1.46c0,.5-.18.8-1,1.44-.6.46-1.22.92-1.84,1.36a12.64,12.64,0,0,0,2.6,1.64,1.33,1.33,0,0,1,.9,1.24,1.66,1.66,0,0,1-1.48,1.68c-1.38,0-3.82-2.12-4.82-3.14a13.92,13.92,0,0,1-3.24-5.46,10.81,10.81,0,0,1-1.68,1.74Z"/><path d="M375.14,65.61a1.28,1.28,0,0,1-1.43,1.46c-1.16,0-1.64-.38-1.64-1.46V53.51c0-2.16,1-2.76,2.79-2.76h4.24V49.51A1.3,1.3,0,0,1,380.58,48c1.2,0,1.68.42,1.68,1.48v1.24h4.38c1.8,0,2.76.6,2.76,2.76v10.7c0,2.81-1.6,2.81-3.9,2.81a8.39,8.39,0,0,1-2-.15,1.46,1.46,0,0,1-.84-1.46,1.33,1.33,0,0,1,1.52-1.5c.26,0,1.48,0,1.68,0a.59.59,0,0,0,.5-.66V61.69a1.69,1.69,0,0,1-1.5,1.24c-.72,0-1.36-.5-2.4-1.84a10.53,10.53,0,0,1-1.76-3.42,10.92,10.92,0,0,1-2.14,3.88c-1.2,1.36-1.74,1.36-2,1.36a1.52,1.52,0,0,1-1.38-.92Zm0-5.28c.19-.3,1.52-1.58,1.8-1.88a9.27,9.27,0,0,0,2-4.76h-3.18a.55.55,0,0,0-.62.62Zm7.3-6.64A10,10,0,0,0,385.86,60a2.14,2.14,0,0,1,.5.64V54.31a.57.57,0,0,0-.62-.62Z"/><path d="M399.52,62.13c-1.06,1.66-2.24,2.46-3.76,2.46-2.91,0-4.15-2.94-4.15-5.92,0-6.46,4.85-9.48,9.69-9.48,5.88,0,8.62,3.7,8.62,8.38,0,7.48-6.94,8.58-8.5,8.58a1.53,1.53,0,0,1-1.6-1.64c0-1.28.9-1.42,1.56-1.52,1.68-.26,5.2-.78,5.2-5.6,0-3.44-2-5-4.12-5.18C402,55.59,400.94,59.93,399.52,62.13Zm-4.82-3.44c0,1.64.62,2.46,1.24,2.46.82,0,1.4-1.26,1.84-2.46a30,30,0,0,0,1.56-6.4A6.27,6.27,0,0,0,394.7,58.69Z"/><path d="M478.44,49.19c.12-.28.4-.74,1.44-.74.72,0,1.62.26,1.62,1.18a2.4,2.4,0,0,1-.22.84c2-.06,5.6-.2,6-.2a1.36,1.36,0,0,1,1.54,1.44,1.26,1.26,0,0,1-1.2,1.4c-.48.08-5.9.24-8,.28-.56.88-.58.92-.92,1.5a5.25,5.25,0,0,1,2.54-.7,3.66,3.66,0,0,1,1.76.44,3.25,3.25,0,0,1,1.2,1.28,18.41,18.41,0,0,1,3.94-1c1.36,0,1.42,1.36,1.42,1.62,0,1.22-.86,1.42-1.62,1.58-2.18.48-2.24.5-3.16.76.06.78.1,1.58.1,2,0,.92,0,2-1.52,2s-1.52-1.08-1.54-1.4,0-1.12,0-1.54c-1.74.76-3,1.46-3,2.6,0,.9,1.3,1.12,3.36,1.12a29,29,0,0,0,4.16-.38,4.23,4.23,0,0,1,.76-.06c1,0,1.34.7,1.34,1.44a1.25,1.25,0,0,1-1,1.38,19.58,19.58,0,0,1-4.66.46c-3,0-4.2-.22-5.28-.66A3.07,3.07,0,0,1,475.52,63c0-3,3.4-4.8,5.74-5.86a1.55,1.55,0,0,0-1.12-.44c-2.24,0-3.88,2.08-4.38,2.72-.18.22-.9,1.18-1.06,1.38a1.59,1.59,0,0,1-1.24.6,1.56,1.56,0,0,1-1.53-1.54c0-.64.34-1,1.42-2.2a25.77,25.77,0,0,0,3.09-4.16l-2.27,0c-.43,0-1.66,0-1.66-1.46s1.16-1.42,1.61-1.42l3.78,0C478.06,50.17,478.26,49.57,478.44,49.19Z"/><path d="M506.5,51.25c2.06,0,2.12,1.3,2.12,1.9a14.67,14.67,0,0,1-5.26,9.94,17.84,17.84,0,0,1-8.26,3.35,1.57,1.57,0,0,1-1.56-1.69c0-1.06.46-1.16,2-1.52,2.92-.7,6.48-1.82,8.52-5.94a10.65,10.65,0,0,0,1-2.76c0-.32-.18-.32-.64-.32h-5.52c-.72.92-3.26,3.94-4.75,3.94a1.67,1.67,0,0,1-1.59-1.62c0-.62.09-.7,1.38-1.68a14.72,14.72,0,0,0,3.78-4.64c.6-1.16.84-1.62,1.82-1.62.7,0,1.74.38,1.74,1.24a2.91,2.91,0,0,1-.48,1.42Z"/><path d="M517.46,58.87c0,.78-.28,1.52-1.66,1.52-1,0-1.71-.36-1.71-1.52V50.65c0-.76.24-1.54,1.67-1.54,1.06,0,1.7.38,1.7,1.54Zm10-1.26a7.39,7.39,0,0,1-3.86,7.12,14.73,14.73,0,0,1-6.32,1.56,1.59,1.59,0,0,1-1.34-.5,1.81,1.81,0,0,1-.42-1.22c0-1.28.88-1.38,2-1.48,3.3-.32,4.52-1,5.34-1.86a4.47,4.47,0,0,0,1.2-3.5V50.39c0-.9.4-1.54,1.68-1.54,1,0,1.72.34,1.72,1.54Z"/><path d="M534.9,58.43a18.87,18.87,0,0,0-1.07-3.06,1.93,1.93,0,0,1-.17-.76c0-.88.92-1.28,1.59-1.28s1,.34,1.41,1.16a19,19,0,0,1,1.28,3.88c0,.9-.84,1.38-1.82,1.38S535,59,534.9,58.43Zm13-4.14a16.7,16.7,0,0,1-2.62,7,12.2,12.2,0,0,1-8.14,5,1.5,1.5,0,0,1-1.4-1.58c0-.86.54-1,1.8-1.42,2.14-.66,5.82-1.94,7.06-7.84a8.55,8.55,0,0,1,.48-1.88,1.23,1.23,0,0,1,1.16-.66,2.06,2.06,0,0,1,.54.08A1.28,1.28,0,0,1,547.86,54.29Zm-8.52,3.2a18.8,18.8,0,0,0-.76-2.78,2.93,2.93,0,0,1-.26-1c0-.9.9-1.26,1.58-1.26s1.12.42,1.44,1.24a21,21,0,0,1,1,3.86c0,1.36-1.52,1.36-1.88,1.36C539.64,58.89,539.44,58,539.34,57.49Z"/><path d="M566.5,51.25c2.06,0,2.12,1.3,2.12,1.9a14.67,14.67,0,0,1-5.26,9.94,17.84,17.84,0,0,1-8.26,3.35,1.57,1.57,0,0,1-1.56-1.69c0-1.06.46-1.16,2-1.52,2.92-.7,6.48-1.82,8.52-5.94a10.65,10.65,0,0,0,1-2.76c0-.32-.18-.32-.64-.32h-5.52c-.72.92-3.26,3.94-4.75,3.94a1.67,1.67,0,0,1-1.59-1.62c0-.62.09-.7,1.38-1.68a14.72,14.72,0,0,0,3.78-4.64c.6-1.16.84-1.62,1.82-1.62.7,0,1.74.38,1.74,1.24a2.91,2.91,0,0,1-.48,1.42Z"/><path d="M585.32,57.63a7.35,7.35,0,0,1,.44,2.54c0,3.54-2.14,5.5-5.84,6.08a22,22,0,0,1-3,.28A1.53,1.53,0,0,1,575.1,65c0-1.3.92-1.3,1.94-1.3a9.9,9.9,0,0,0,4.12-.74,2.51,2.51,0,0,0,1.34-1.58,4.17,4.17,0,0,1-3,.94c-2.86,0-4.92-1.56-4.92-4,0-2.14,1.72-4,5-4a7.37,7.37,0,0,1,2.6.42l0-1.26c-3.54.06-4.8.1-7,.1a10.5,10.5,0,0,1-2.51-.1c-.29-.08-.86-.34-.86-1.36,0-1.42,1.08-1.44,1.81-1.44l3.28,0c2.16,0,3,0,5.2-.08l0-.54c0-.42,0-1.64,1.6-1.64s1.64,1.18,1.64,1.6v.5c.44,0,2.42-.08,2.84-.08.66,0,1.56.14,1.56,1.42s-.92,1.44-1.6,1.46c-.4,0-.64,0-2.8.06Zm-3.14.66c0-1.54-1.88-1.6-2.2-1.6-.9,0-2.3.38-2.3,1.6,0,1.44,1.74,1.6,2.24,1.6C581,59.89,582.18,59.43,582.18,58.29Z"/><path d="M603.14,54.61a7.81,7.81,0,0,1,3.2.68,5.13,5.13,0,0,1,2.86,4.86,5.84,5.84,0,0,1-3.56,5.52,11.17,11.17,0,0,1-4.64.84,7.84,7.84,0,0,1-4.48-1,3,3,0,0,1-1.4-2.56c0-2.46,2.12-3.58,4.4-3.58,1.26,0,4.06.34,4.06,3.38a3.28,3.28,0,0,1-.1.74,3.06,3.06,0,0,0,2.38-3,2.87,2.87,0,0,0-1.76-2.74,5.82,5.82,0,0,0-2.24-.36A9.05,9.05,0,0,0,595.5,60c-1.33,1.22-1.45,1.3-2,1.3a1.72,1.72,0,0,1-1.66-1.7c0-.68.23-.86,1.66-1.9,2.62-1.9,4.56-3.36,6.7-5.06a7.6,7.6,0,0,0,.68-.58c-.9,0-5.22.34-5.67.34a1.39,1.39,0,0,1-1.59-1.54c0-1.42,1.05-1.5,1.7-1.52,5.18-.08,5.64-.08,8.14-.18l1.06,0c.6,0,1.86,0,1.86,1.4,0,1-.26,1.2-2.54,2.58-1.22.74-2.1,1.42-2.62,1.8A5.73,5.73,0,0,1,603.14,54.61Zm-2,8.58c0-1.08-.76-1.38-1.58-1.38s-1.62.4-1.62,1,.86,1.12,2.26,1.12a4.35,4.35,0,0,0,.84-.1A2.63,2.63,0,0,0,601.12,63.19Z"/><path d="M627.48,51.91a1.57,1.57,0,0,1,1.62,1.7c0,1.2-.82,1.44-2.12,1.68a31.76,31.76,0,0,0-8.14,2.42c-.68.34-2.82,1.42-2.82,3.22,0,1.6,1.24,2.2,4.84,2.2a29.74,29.74,0,0,0,5-.44,12,12,0,0,1,1.42-.18,1.44,1.44,0,0,1,1.6,1.64c0,1.08-.6,1.4-1.42,1.6a34.31,34.31,0,0,1-6.06.48c-3.26,0-8.78-.26-8.78-5a5.85,5.85,0,0,1,2.5-4.7,19,19,0,0,1,3.1-1.76,27.54,27.54,0,0,0-.8-3.48,7.82,7.82,0,0,1-.4-1.72c0-1,.92-1.4,1.78-1.4,1.42,0,1.54.6,1.94,2.62,0,.12.46,2.62.48,2.82A32.13,32.13,0,0,1,627.48,51.91Z"/><path d="M648.8,50.87a1.27,1.27,0,0,1,1.48,1.4c0,1.18-.48,1.56-1.48,1.56h-9.36c-.16.78-.38,1.66-.54,2.26h8.88a1.25,1.25,0,0,1,1.46,1.32c0,1-.38,1.5-1.46,1.5H644.4v4.72h4.42c.5,0,1.46.08,1.46,1.34,0,1-.32,1.54-1.46,1.54H637.06a1.28,1.28,0,0,1-1.48-1.36c0-1.12.5-1.52,1.48-1.52h4.2V58.91H638a26.5,26.5,0,0,1-2.84,5.62c-1,1.48-1.47,1.8-2.09,1.8a1.83,1.83,0,0,1-1.8-1.66,2.68,2.68,0,0,1,.82-1.64,17.93,17.93,0,0,0,2.93-4.9,23.92,23.92,0,0,0,1.32-4.3h-3.65c-.58,0-1.46-.1-1.46-1.36,0-1.1.34-1.6,1.46-1.6h4.13c0-.28.14-1.52.18-1.76a1.22,1.22,0,0,1,1.42-1.2c1.54,0,1.66.8,1.66,1.4,0,.18,0,.76-.14,1.56Z"/><path d="M659.52,62.13c-1.06,1.66-2.24,2.46-3.76,2.46-2.91,0-4.15-2.94-4.15-5.92,0-6.46,4.85-9.48,9.69-9.48,5.88,0,8.62,3.7,8.62,8.38,0,7.48-6.94,8.58-8.5,8.58a1.53,1.53,0,0,1-1.6-1.64c0-1.28.9-1.42,1.56-1.52,1.68-.26,5.2-.78,5.2-5.6,0-3.44-2-5-4.12-5.18C662,55.59,660.94,59.93,659.52,62.13Zm-4.82-3.44c0,1.64.62,2.46,1.24,2.46.82,0,1.4-1.26,1.84-2.46a30,30,0,0,0,1.56-6.4A6.27,6.27,0,0,0,654.7,58.69Z"/><path d="M673.08,52h-.42c-.85,0-1.43-.36-1.43-1.36s.36-1.56,1.46-1.56h4c.42,0,1.38,0,1.38,1.46S677.22,52,676.7,52H676v8.48a3.94,3.94,0,0,1,1-.2c.94,0,1.26.92,1.26,1.58,0,1-.5,1.12-1.76,1.54a41.25,41.25,0,0,1-4.12,1.18c-.77,0-1.27-.88-1.27-1.7,0-1.06.42-1.18,1.89-1.58Zm10.18,12.32c0,.54-.26.8-2.06,1.74a8.8,8.8,0,0,1-2.6.94,1.44,1.44,0,0,1-1.38-1.5c0-.8.48-1,1.52-1.3a15.4,15.4,0,0,0,2.34-1,1.67,1.67,0,0,1,.94-.24A1.43,1.43,0,0,1,683.26,64.31Zm-1.12-12.18a4,4,0,0,0,.3-.86H679.5c-.86,0-1.28-.32-1.28-1.38a1.1,1.1,0,0,1,1.28-1.22h9.44c.8,0,1.3.26,1.3,1.36a1.12,1.12,0,0,1-1.3,1.24h-3.46a6,6,0,0,1-.32.86h1.76c2.18,0,2.54.44,2.54,2.48v5.8c0,2.08-.38,2.48-2.54,2.48h-5.6c-2.16,0-2.54-.42-2.54-2.48v-5.8c0-2.08.42-2.48,2.54-2.48Zm-.46,3h4.78v-.5a.35.35,0,0,0-.38-.38h-4a.34.34,0,0,0-.38.38ZM686.46,57h-4.78v.88h4.78Zm-4.78,2.74v.62a.34.34,0,0,0,.38.38h4a.34.34,0,0,0,.38-.38v-.62Zm5.62,3.74c.54.26,1.06.48,1.68.72s1.28.46,1.28,1.26c0,.54-.38,1.61-1.38,1.61a7.59,7.59,0,0,1-2.24-.79c-2-1-2.12-1.32-2.12-1.86a1.44,1.44,0,0,1,1.36-1.44C686.32,62.93,686.42,63,687.3,63.43Z"/><path d="M708.58,63.81c0,2.14-1,2.68-2.66,2.68H695.64C694,66.49,693,66,693,63.81V51.37c0-2.08,1-2.66,2.67-2.66h10.28c1.66,0,2.66.56,2.66,2.66Zm-12.5-10.1h9.4V52a.53.53,0,0,0-.56-.56h-8.28a.54.54,0,0,0-.56.56Zm0,2.6v2.32h9.4V56.31Zm0,4.92v1.92a.54.54,0,0,0,.56.56h8.28a.53.53,0,0,0,.56-.56V61.23Z"/><path d="M719.52,62.13c-1.06,1.66-2.24,2.46-3.76,2.46-2.91,0-4.15-2.94-4.15-5.92,0-6.46,4.85-9.48,9.69-9.48,5.88,0,8.62,3.7,8.62,8.38,0,7.48-6.94,8.58-8.5,8.58a1.53,1.53,0,0,1-1.6-1.64c0-1.28.9-1.42,1.56-1.52,1.68-.26,5.2-.78,5.2-5.6,0-3.44-2-5-4.12-5.18C722,55.59,720.94,59.93,719.52,62.13Zm-4.82-3.44c0,1.64.62,2.46,1.24,2.46.82,0,1.4-1.26,1.84-2.46a30,30,0,0,0,1.56-6.4A6.27,6.27,0,0,0,714.7,58.69Z"/><path d="M743.3,52a9.74,9.74,0,0,1-1.06,1.18c.3.16,1.66.92,1.94,1.06a19.09,19.09,0,0,0,5,1.7,1.16,1.16,0,0,1,1,1.2c0,.34-.12,1.72-1.36,1.72a12.87,12.87,0,0,1-2.92-.86c0,1-.78,1.1-1.22,1.1h-8c-.48,0-1.16-.08-1.22-1.06a9.47,9.47,0,0,1-2.88.84,1.44,1.44,0,0,1-1.33-1.58c0-.9.55-1.1,1.33-1.28a18.73,18.73,0,0,0,5.94-2.44,3.62,3.62,0,0,1,1.42-.66,1.24,1.24,0,0,1-.3-.92h-1.36a4.21,4.21,0,0,1,.28,1c0,.78-1,1-1.64,1a1.08,1.08,0,0,1-1.16-.66c-.08-.2-.38-1.12-.44-1.32h-.34a12.57,12.57,0,0,1-1.2,1.32,1.86,1.86,0,0,1-1.23.62,1.7,1.7,0,0,1-1.52-1.62c0-.46.08-.52.7-1.16a14.16,14.16,0,0,0,2-2.46,1.41,1.41,0,0,1,1.25-.78c.8,0,1.86.46,1.68,1.46h2.7c.72,0,1.18.22,1.24,1.16a15.83,15.83,0,0,0,1.3-2,1.09,1.09,0,0,1,1.06-.62c.7,0,1.88.44,1.74,1.46h4.26a1.1,1.1,0,0,1,1.26,1.24c0,1.06-.44,1.38-1.26,1.38H747c.4.74.5.94.5,1.22,0,.92-1.34,1-1.72,1-.82,0-1.12-.3-1.3-.72-.1-.22-.46-1.26-.56-1.46Zm4.88,12.22c0,1.92-.88,2.42-2.42,2.42h-10c-1.48,0-2.42-.46-2.42-2.42V62.31c0-2,1-2.44,2.42-2.44h10c1.58,0,2.42.56,2.42,2.44Zm-2.88-1.46a.5.5,0,0,0-.56-.56h-7.92a.5.5,0,0,0-.56.56v1a.5.5,0,0,0,.56.56h7.92a.51.51,0,0,0,.56-.56Zm-2-5.88A13.3,13.3,0,0,1,741,55.33c-.16-.14-.18-.16-.28-.16a.36.36,0,0,0-.22.1,15.2,15.2,0,0,1-2.44,1.62Z"/><path d="M762.12,58.93a1.7,1.7,0,0,1,1.68,1.88c0,.24-.12,1.28-.12,1.5,0,.94.32,1.22,1.84,1.22.44,0,2.38-.14,2.68-.14a1.31,1.31,0,0,1,1.54,1.44c0,1.58-1.1,1.64-3.84,1.64-2.28,0-5.08,0-5.08-2.78,0-.2.06-1.12.06-1.3s0-1.12-.9-1.12c-1.1,0-1.88.82-4.62,3.68-1.08,1.12-1.42,1.22-1.94,1.22a1.67,1.67,0,0,1-.83-3.1c2.45-2,2.53-2,4-3.3s1.76-1.46,3.26-2.6l1.64-1.38c-.22,0-1.16.1-1.36.12-.44,0-4,.34-5.42.34-.53,0-1.57-.06-1.57-1.48s1.16-1.5,1.93-1.5c2.76,0,3.46,0,6.36-.16.58,0,3.36-.26,3.64-.26.48,0,1.7,0,1.7,1.46,0,.82-.38,1.2-1.5,1.9a32,32,0,0,0-3.78,2.8A4.86,4.86,0,0,1,762.12,58.93Zm-5.46-10.5c.4,0,2.18.34,2.56.4a46.57,46.57,0,0,0,5.28.42c.82,0,1.8.08,1.8,1.34,0,1.48-1.16,1.48-1.74,1.48a55.3,55.3,0,0,1-8.12-.76,1.31,1.31,0,0,1-1.2-1.34c0-.12,0-.24,0-.36A1.26,1.26,0,0,1,756.66,48.43Z"/><path d="M778.44,49.19c.12-.28.4-.74,1.44-.74.72,0,1.62.26,1.62,1.18a2.4,2.4,0,0,1-.22.84c2-.06,5.6-.2,6-.2a1.36,1.36,0,0,1,1.54,1.44,1.26,1.26,0,0,1-1.2,1.4c-.48.08-5.9.24-8,.28-.56.88-.58.92-.92,1.5a5.25,5.25,0,0,1,2.54-.7,3.66,3.66,0,0,1,1.76.44,3.25,3.25,0,0,1,1.2,1.28,18.41,18.41,0,0,1,3.94-1c1.36,0,1.42,1.36,1.42,1.62,0,1.22-.86,1.42-1.62,1.58-2.18.48-2.24.5-3.16.76.06.78.1,1.58.1,2,0,.92,0,2-1.52,2s-1.52-1.08-1.54-1.4,0-1.12,0-1.54c-1.74.76-3,1.46-3,2.6,0,.9,1.3,1.12,3.36,1.12a29,29,0,0,0,4.16-.38,4.23,4.23,0,0,1,.76-.06c1,0,1.34.7,1.34,1.44a1.25,1.25,0,0,1-1,1.38,19.58,19.58,0,0,1-4.66.46c-3,0-4.2-.22-5.28-.66A3.07,3.07,0,0,1,775.52,63c0-3,3.4-4.8,5.74-5.86a1.55,1.55,0,0,0-1.12-.44c-2.24,0-3.88,2.08-4.38,2.72-.18.22-.9,1.18-1.06,1.38a1.59,1.59,0,0,1-1.24.6,1.56,1.56,0,0,1-1.53-1.54c0-.64.34-1,1.42-2.2a25.77,25.77,0,0,0,3.09-4.16l-2.27,0c-.43,0-1.66,0-1.66-1.46s1.16-1.42,1.61-1.42l3.78,0C778.06,50.17,778.26,49.57,778.44,49.19Z"/><path d="M799.12,59.33l-.24,0a1.1,1.1,0,0,1-.84-.44v5.3c0,2.1-.4,2.48-2.44,2.48H795c-2.07,0-2.45-.4-2.45-2.48V59.75c-.63.1-1.44-.64-1.44-1.56,0-.4.08-.68.68-1.76a13.25,13.25,0,0,0,1.6-5h-.66a1.27,1.27,0,0,1-1.3-1.4,1.3,1.3,0,0,1,1.49-1.36h4.22a1.28,1.28,0,0,1,1.42.88,4.41,4.41,0,0,1,1.52-.14H802c.28-1.1.38-1.48,1.54-1.48.54,0,1.48.12,1.48,1a3,3,0,0,1-.06.52h2.48c2.06,0,2.48.38,2.48,2.46v.7c0,.78-.22,1.26-1.4,1.26-.68,0-.94-.22-1.1-.46a1.43,1.43,0,0,1-.32.92h1.72a1.18,1.18,0,1,1,0,2.36H806.6v1.06h1.78c.32,0,1.22,0,1.22,1.08s-.9,1.06-1.22,1.06H806.6V61h1.78a1.08,1.08,0,1,1,0,2.14H806.6v1.16H809c.56,0,1.28.14,1.28,1.24A1.1,1.1,0,0,1,809,66.71h-7.54c-1.54,0-2.36-.54-2.36-2.36ZM795.82,58c0-.2-.1-.34-.36-.34s-.56,0-.56.34v5.64a.31.31,0,0,0,.34.34c.36,0,.58,0,.58-.34Zm4.58-5.92a.33.33,0,0,0-.36.38v.5a1.07,1.07,0,0,1-1.16,1.24c-1,0-1.28-.42-1.28-1.24v-1.5a1.57,1.57,0,0,1-.46,0H796a17.56,17.56,0,0,1-.73,3.48h.29c1.2,0,2.24,0,2.44,1.52a10.12,10.12,0,0,0,3.22-4.42Zm3.58,5.7V56.63h-1.72a.33.33,0,0,0-.36.38v.74Zm0,2H801.9V61H804Zm0,4.46V63H801.9v.88a.33.33,0,0,0,.36.36Zm.2-12.2a14.07,14.07,0,0,1-1,2.28h1.12c.12-.22.5-1,.62-1.22a1.4,1.4,0,0,1,1.12-.44,1.65,1.65,0,0,1,1.2.4,1,1,0,0,1,0-.24v-.4a.34.34,0,0,0-.36-.38Z"/><path d="M812.43,54a1.06,1.06,0,0,1-1.24-1.16c0-1,.4-1.28,1.24-1.28h5.07a1.08,1.08,0,0,1,1.24,1.22c0,1.12-.72,1.22-1.24,1.22Zm.5-3a1.07,1.07,0,0,1-1.24-1.18c0-1.08.73-1.18,1.24-1.18h4a1.18,1.18,0,1,1,0,2.36Zm0,6a1.06,1.06,0,0,1-1.24-1.18c0-1.08.7-1.2,1.24-1.2h4a1.07,1.07,0,0,1,1.24,1.18c0,1.1-.72,1.2-1.24,1.2Zm0,2.94a1.07,1.07,0,0,1-1.24-1.16c0-1.08.77-1.16,1.24-1.16h4a1.07,1.07,0,0,1,1.24,1.16c0,1.16-.9,1.16-1.32,1.16ZM814,66.81c-1.89,0-2.25-.36-2.25-2.28V62.75c0-1.92.36-2.26,2.26-2.26h1.79c1.88,0,2.26.32,2.26,2.26v1.94a26.4,26.4,0,0,0,.88-3.92c.08-.6.16-1.2,1.12-1.2.62,0,1.22.2,1.22,1a22.39,22.39,0,0,1-.6,3.72c-.36,1.56-.56,2.07-1.4,2.07a1.35,1.35,0,0,1-1.28-.77c-.24,1.12-1,1.18-2.18,1.18Zm1.86-3.74a.34.34,0,0,0-.38-.38h-.78a.33.33,0,0,0-.36.38v1a.33.33,0,0,0,.36.38h.78a.34.34,0,0,0,.38-.38Zm4.24-11.94a1.29,1.29,0,1,1,0-2.58h7.08c1.18,0,2.7,0,2.7,2.44a35.17,35.17,0,0,1-.46,5.06c-.38,1.7-1,2-2.74,2-1.06,0-2.06,0-2.06-1.52a1.71,1.71,0,0,1,.16-.78.88.88,0,0,1-.5.12c-.26,0-.44,0-1.14-.4-.94,1.4-2.58,3.08-3.5,3.08a1.54,1.54,0,0,1-1.5-1.52,1.31,1.31,0,0,1,.5-1,7.72,7.72,0,0,0,1.92-1.66c-.16-.06-.84-.3-1-.36a.94.94,0,0,1-.66-1,1.29,1.29,0,0,1,1.26-1.36,6.59,6.59,0,0,1,1.56.38,6.1,6.1,0,0,0,.16-.94Zm5.2,9.8a18.54,18.54,0,0,1-2.56-.92c-1-.32-1.48-.48-1.48-1.22a1.36,1.36,0,0,1,1.32-1.42,6.89,6.89,0,0,1,2.44.7c1.38.6,1.52.84,1.52,1.46S826.14,60.93,825.34,60.93ZM824,63.53c0,.44.06.6.46.6s.56-.22.6-.88.06-1.26,1-1.26,1.06.78,1.06,1.52a6.61,6.61,0,0,1-.38,2.3c-.44,1-1.1,1-2.54,1-2.4,0-2.76-.41-2.76-2.5V61.43c0-.38,0-1.24,1.26-1.24S824,61,824,61.43Zm.86-12.4a9,9,0,0,1-.46,2c.8.36,1.24.56,1.24,1.26a1.89,1.89,0,0,1-.32.94,1.57,1.57,0,0,1,.7-.08c.58,0,.72-.2.84-.58a13.66,13.66,0,0,0,.3-2.88c0-.62-.24-.66-.7-.66ZM830,65.89a1.47,1.47,0,0,1-1.1.42c-1.08,0-1.16-.54-1.38-1.94a16.74,16.74,0,0,0-.74-2.88,3,3,0,0,1-.2-.92c0-1,1.34-1.06,1.48-1.06.8,0,1,.52,1.44,1.82a16,16,0,0,1,.86,3.44A1.3,1.3,0,0,1,830,65.89Z"/><path d="M833.29,53.31a1.68,1.68,0,0,1-.08-3.34c.84-.08,10.35-.44,14.23-.44,1.1,0,2.24,0,2.24,1.52s-1.08,1.66-2.22,1.66A8.2,8.2,0,0,0,843.24,54c-2.06,1.18-4.1,3.4-4.1,5.74,0,2.5,2.06,3.06,5.42,3.06h1.72a1.37,1.37,0,0,1,1.54,1.5c0,1.88-1.46,1.88-2.9,1.88a18.33,18.33,0,0,1-4.44-.54c-1.08-.28-4.66-1.2-4.66-5.52A7.5,7.5,0,0,1,838,54.93a10.86,10.86,0,0,1,2.62-2.14C839.54,52.87,833.82,53.31,833.29,53.31Zm10.93,2.12a1.21,1.21,0,0,1-.12-.44c0-.4.5-.64.8-.64s.54.22,1,1A6,6,0,0,1,846.5,57c0,.54-.56.68-.8.68s-.36,0-.56-.42c-.08-.14-.38-.8-.44-.94S844.28,55.57,844.22,55.43Zm2.06-1a1,1,0,0,1-.08-.36c0-.4.5-.62.78-.62s.6.32,1,1a4.72,4.72,0,0,1,.66,1.66c0,.44-.46.66-.8.66-.1,0-.36,0-.58-.42-.08-.14-.38-.8-.44-.92S846.34,54.53,846.28,54.39Z"/><path d="M859.26,49.73c0-1.16,1.32-1.36,1.8-1.36,1.1,0,1.22.42,1.74,2.16.52,0,1.44-.08,1.6-.1.38,0,2-.26,2.32-.26s1.36,0,1.36,1.38c0,1-.72,1.22-1.32,1.32s-2.72.28-3.12.3c.26.7.36.9.48,1.2,1.28-.12,2.26-.22,3.1-.34a5.26,5.26,0,0,1,1-.12,1.2,1.2,0,0,1,1.22,1.34,1.24,1.24,0,0,1-1.12,1.3,24.89,24.89,0,0,1-2.86.34A10.84,10.84,0,0,0,867,59a1.65,1.65,0,0,1,.42,1.06,1.62,1.62,0,0,1-1.62,1.58,2.79,2.79,0,0,1-.86-.2,15,15,0,0,0-5.26-.92c-2.9,0-3.32,1-3.32,1.46,0,1.4,2.78,1.5,4.12,1.5a20.46,20.46,0,0,0,4.74-.58,6.71,6.71,0,0,1,1.46-.28,1.53,1.53,0,0,1,.24,3,18.54,18.54,0,0,1-5.94.76c-2.76,0-7.91-.22-7.91-4.1,0-3.4,3.87-4.08,6.53-4.08a13.3,13.3,0,0,1,3.26.34,8.89,8.89,0,0,1-.86-1.44c-4.72.18-5.12.2-6.4.2a22.21,22.21,0,0,1-2.89-.14c-.3-.08-.73-.38-.73-1.22,0-1.2.83-1.3,1.42-1.3l2.86.06c.36,0,2.7,0,4.54-.12-.14-.34-.4-1-.5-1.24-3,.08-3.34.1-4.38.1a14.52,14.52,0,0,1-2.47-.12c-.31-.08-.74-.42-.74-1.24,0-1.34.89-1.34,1.81-1.34l3.4,0c.28,0,1.32,0,1.52-.06A3.83,3.83,0,0,1,859.26,49.73Z"/><path d="M882.8,54.75c.66,0,3.64-.08,4.24-.12l.56,0A1.23,1.23,0,0,1,889,56c0,1.3-.88,1.36-2,1.38l-4.14.1,0,1.94a19.45,19.45,0,0,1,5.6,3.14,1.65,1.65,0,0,1,.72,1.3,1.8,1.8,0,0,1-1.66,1.82c-.48,0-.76-.14-1.44-.74-.34-.3-1.2-1-2.08-1.6a11,11,0,0,0-1.14-.68c-.08,1.18-.24,3.74-4.64,3.74-3.76,0-5.81-1.62-5.81-3.86s2-3.88,5.73-3.88a11.26,11.26,0,0,1,1.52.1l0-1.22-5,0a3.79,3.79,0,0,1-1.7-.18,1.32,1.32,0,0,1-.55-1.2c0-1,.59-1.34,1.41-1.34l5.77,0,0-1.42-4.66,0h-.48a3.46,3.46,0,0,1-1.61-.18,1.34,1.34,0,0,1-.58-1.2c0-1.38,1.09-1.38,1.65-1.38l1.1,0c.72,0,3.88,0,4.54,0l0-.76c0-1.24,1-1.4,1.58-1.4.82,0,1.58.26,1.62,1.4l0,.7c.7,0,3.84-.08,4.48-.12l.58,0a1.24,1.24,0,0,1,1.4,1.38c0,1.3-.86,1.34-1.68,1.38s-4.06.1-4.74.12ZM878,61.07c-.54,0-2.52.08-2.52,1.34,0,.84.94,1.26,2.38,1.26.6,0,1.36-.08,1.68-.6.18-.32.2-.64.2-1.7A4.76,4.76,0,0,0,878,61.07Z"/><path d="M905.32,57.63a7.35,7.35,0,0,1,.44,2.54c0,3.54-2.14,5.5-5.84,6.08a22,22,0,0,1-3,.28A1.53,1.53,0,0,1,895.1,65c0-1.3.92-1.3,1.94-1.3a9.9,9.9,0,0,0,4.12-.74,2.51,2.51,0,0,0,1.34-1.58,4.17,4.17,0,0,1-3,.94c-2.86,0-4.92-1.56-4.92-4,0-2.14,1.72-4,5-4a7.37,7.37,0,0,1,2.6.42l0-1.26c-3.54.06-4.8.1-7,.1a10.5,10.5,0,0,1-2.51-.1c-.29-.08-.86-.34-.86-1.36,0-1.42,1.08-1.44,1.81-1.44l3.28,0c2.16,0,3,0,5.2-.08l0-.54c0-.42,0-1.64,1.6-1.64s1.64,1.18,1.64,1.6v.5c.44,0,2.42-.08,2.84-.08.66,0,1.56.14,1.56,1.42s-.92,1.44-1.6,1.46c-.4,0-.64,0-2.8.06Zm-3.14.66c0-1.54-1.88-1.6-2.2-1.6-.9,0-2.3.38-2.3,1.6,0,1.44,1.74,1.6,2.24,1.6C901,59.89,902.18,59.43,902.18,58.29Z"/><path d="M919.22,62.73a3.59,3.59,0,1,1-3.6-3.6A3.59,3.59,0,0,1,919.22,62.73Zm-5.4,0a1.81,1.81,0,1,0,1.8-1.82A1.81,1.81,0,0,0,913.82,62.73Z"/><rect id="正四面体" class="cls-3" x="417.21" y="50" width="50" height="18"/><g id="hand_1" data-name="hand 1"><path class="cls-4" d="M42.5,56.11c-6,0-10.41-3.57-12-9.8-1.81-7.1.89-13.41,7.22-16.88,3.6-2,7.39-3.6,11-5.19l3-1.29a5.52,5.52,0,0,1,2.1-.41,3.73,3.73,0,0,1,3,1.16,5,5,0,0,1,.7,4.94,9.32,9.32,0,0,1-1.3,2.06H69.49a5.62,5.62,0,0,1,4.15,1.52,4.65,4.65,0,0,1,1.3,3.46c0,2.42-1.77,4.88-5.51,4.9h-6.1A4.51,4.51,0,0,1,63,42.91a4.33,4.33,0,0,1-1.54,1.83,7,7,0,0,1,0,2.29,4.59,4.59,0,0,1-1.65,2.69,4.59,4.59,0,0,1-.19,3.37c-1.31,3-4.3,3-5.57,3H50.37l-3.24,0c-1.38,0-2.76,0-4.14.06Z"/><path class="cls-2" d="M53.83,25a1.48,1.48,0,0,1,1.06.3,2.51,2.51,0,0,1,.31,2.26,6.33,6.33,0,0,1-2.11,2.58c-1.66,1.1-3.53,1.91-5.66,3H69.48c2,0,3,.87,3,2.44s-1.11,2.43-3,2.44H59.56c2.19,3,1.5,4.84-1.4,5.16A4.39,4.39,0,0,1,59,46.58c-.23,1.28-2.06,2-2.68,2.27.9.91,1.59,1.9,1,3.23s-2,1.5-3.29,1.5h-.38l-6.51,0c-1.41,0-2.81,0-4.22.06H42.5c-5.48,0-8.46-3.5-9.58-7.92-1.51-5.91.56-11.09,6-14.06,4.44-2.43,9.18-4.34,13.83-6.39a2.83,2.83,0,0,1,1.09-.2m0-5a7.92,7.92,0,0,0-3.11.62c-1,.44-2,.86-2.95,1.29-3.72,1.61-7.56,3.27-11.26,5.29C29.11,31.29,26,38.65,28.07,46.93c1.87,7.32,7.26,11.68,14.43,11.68h.57c1.19,0,2.48-.06,4.06-.06l3.22,0H54c1.46,0,5.89,0,7.86-4.49a7.18,7.18,0,0,0,.61-3.57,6.76,6.76,0,0,0,1.4-3.05A8.64,8.64,0,0,0,64,45.78a6.66,6.66,0,0,0,1.22-1.86,7,7,0,0,0,.31-.82h3.88c4.62,0,7.91-3.05,8-7.36a7.26,7.26,0,0,0-2-5.25,8,8,0,0,0-5.94-2.27H60.22a7.5,7.5,0,0,0-1.54-6.13,6.25,6.25,0,0,0-4.85-2Z"/></g></g></g></g></svg>