<svg xmlns="http://www.w3.org/2000/svg" viewBox="0 0 1080 60"><defs><style>.cls-1{fill:#e3e3e3;}.cls-2{fill:#009fe8;}.cls-3{fill:#fff;}</style></defs><title>Asset 1</title><g id="Layer_2" data-name="Layer 2"><g id="bass"><g id="title"><path class="cls-1" d="M1050,0H205V60h845a30,30,0,0,0,0-60Z"/><path class="cls-2" d="M205,0H30a30,30,0,0,0,0,60H205Z"/><path class="cls-3" d="M43.7,26.46H54.46a2.19,2.19,0,0,1,2.43,2.44c0,2.43-1.76,2.47-2.43,2.47H43.7v12H57.52c.63,0,2.4,0,2.4,2.52,0,2.31-1.43,2.56-2.4,2.56H22.74A2.15,2.15,0,0,1,20.35,46c0-2,.84-2.68,2.39-2.68H26.6V24c0-.63,0-2.39,2.48-2.39,2.1,0,2.86.75,2.86,2.39V43.35h6.47V16.63H24.08c-.63,0-2.43,0-2.43-2.48,0-2.31,1.51-2.52,2.43-2.52H56.39c.59,0,2.43,0,2.43,2.48s-1.68,2.52-2.43,2.52H43.7Z"/><path class="cls-3" d="M92,12.51c1.72,0,4,0,4,2.73,0,1.47-.67,3.28-4.32,6.09C79.19,31,66.34,32.55,65.37,32.55a2.49,2.49,0,0,1-2.44-2.65c0-1.8,1.35-2,2.36-2.1a45.26,45.26,0,0,0,11-2.81A47.66,47.66,0,0,0,72,20.07c-1.52.8-4.33,2.27-5.76,2.27s-2.27-1.59-2.27-2.64a2,2,0,0,1,1.6-1.94C67.3,17.05,72,15.24,75,12.22c1.64-1.56,2.4-2.31,4.08-2.31.21,0,2.64,0,2.64,1.76a1.51,1.51,0,0,1-.21.84Zm5.17,15.21c1.68,0,4.2,0,4.2,3.23,0,4.16-5.88,9.54-9.87,12.1-9.08,5.76-21.43,6.6-23.19,6.6a2.67,2.67,0,0,1-3-2.82c0-2.22,1.55-2.35,3.23-2.43a57.22,57.22,0,0,0,13.65-2.61,39.79,39.79,0,0,0-4-5.29c-2.85,1.39-7.39,3.11-9.11,3.11A2.37,2.37,0,0,1,66.76,37c0-1.68,1-2,2.26-2.26a42.27,42.27,0,0,0,14.54-6.85,37.41,37.41,0,0,0,3.23-2.86,3.38,3.38,0,0,1,2.57-1.3c1.47,0,2.6.84,2.6,1.72a3.74,3.74,0,0,1-1.3,2.23ZM77,16.84c-.3.21-.55.42-1.22.88A54.29,54.29,0,0,1,81,22.89c6.68-3.4,7.73-5.25,7.73-5.55,0-.5-.42-.5-1-.5Zm8.57,15.29c-.8.59-1.6,1.13-3,2.06a50.37,50.37,0,0,1,4.54,5.5c4.79-2.6,8-6,8-7,0-.55-.38-.55-1.13-.55Z"/><path class="cls-3" d="M136.9,20c3.45,0,5.25,1.18,5.25,5.25V43.56c0,4-1.76,5.21-5.25,5.21H111.28c-3.49,0-5.25-1.22-5.25-5.21V25.24c0-4,1.76-5.25,5.25-5.25H120a18.94,18.94,0,0,0,1-3.57H106.74c-1,0-2.56-.17-2.56-2.35,0-1.85,1-2.4,2.56-2.4h34.87c.67,0,2.56,0,2.56,2.27,0,1.77-.8,2.48-2.56,2.48h-15c-.21.76-.38,1.43-1.09,3.57Zm-21.63,4.58h-2.73A1.23,1.23,0,0,0,111.19,26V42.8a1.22,1.22,0,0,0,1.35,1.34h2.73Zm12.89,3.74V24.57h-8v3.74Zm0,7.73V32.21h-8V36Zm0,4h-8v4.15h8Zm4.92-15.42V44.14h2.69a1.21,1.21,0,0,0,1.34-1.34V26a1.23,1.23,0,0,0-1.34-1.39Z"/><path class="cls-3" d="M160,22.43a2.22,2.22,0,0,1-2.57-2.36c0-1.89.84-2.6,2.57-2.6h8.82V12.6A2.19,2.19,0,0,1,171.13,10c1.89,0,2.73.68,2.73,2.57v4.87h9.41A2.23,2.23,0,0,1,185.83,20c0,2.14-1.34,2.48-2.56,2.48h-7.86a41.43,41.43,0,0,0,7,10.75l2.52,2.6A2.69,2.69,0,0,1,186,37.89,3.16,3.16,0,0,1,183.19,41c-.84,0-1.39-.42-2.65-1.85a46.63,46.63,0,0,1-6.68-10.08v9.15h3.95a2,2,0,0,1,2.35,2.31c0,2.27-1.43,2.4-2.35,2.4h-3.95v4.41c0,.88-.13,2.56-2.39,2.56-1.81,0-2.69-.59-2.69-2.56V43h-4a2.12,2.12,0,0,1-2.48-2.35c0-2.27,1.55-2.36,2.48-2.36h4V29a39.83,39.83,0,0,1-8.15,11.43c-.84.84-1.22,1.05-1.85,1.05a3,3,0,0,1-2.65-2v7.94a2.25,2.25,0,0,1-2.48,2.56c-2.22,0-2.68-1.17-2.68-2.56V29.78c-.76,1-1.26,1.55-2.23,1.55a3.18,3.18,0,0,1-2.06-5.21,37.07,37.07,0,0,0,5-8.44,43.57,43.57,0,0,0,1.85-5.46c.29-1.05.67-2,2.35-2,.42,0,2.77,0,2.77,2.19,0,1.76-1.68,6.21-2.48,8.15V37.09a3.7,3.7,0,0,1,1-1.05,42,42,0,0,0,10.29-13.61Z"/></g></g></g></svg>