<svg xmlns="http://www.w3.org/2000/svg" viewBox="0 0 1080 80"><defs><style>.cls-1{fill:#f1f1f1;}.cls-2{fill:#ff7f00;}.cls-3{fill:#fff;}.cls-4{font-size:36px;font-family:ShinMGoPro-Ultra, ShinMGoPro Ultra-90ms-RKSJ-H;}.cls-4,.cls-9{fill:#009fe8;}.cls-5{letter-spacing:-0.03em;}.cls-6{letter-spacing:0.23em;}.cls-7{font-size:24px;font-family:ShinMGoPro-Bold, ShinMGoPro Bold-90ms-RKSJ-H;font-weight:700;}.cls-8{letter-spacing:-0.5em;}</style></defs><title>Asset 28</title><g id="Layer_2" data-name="Layer 2"><g id="bass"><rect class="cls-1" width="1080" height="80"/></g><g id="dialog"><g id="手順2"><rect class="cls-2" x="215.1" y="42.51" width="84" height="28" rx="14"/><path class="cls-3" d="M254.25,54.52h1.37c.84,0,1.09.35,1.09,1.09,0,1-.75,1-1.09,1h-1.37v.93H256a1,1,0,1,1,0,2.07h-.26a1,1,0,0,1,.39.79c0,.75-1,1.46-1.39,1.78.26.11,1.5.5,1.64.59a1,1,0,0,1,.52.91,1.41,1.41,0,0,1-1.4,1.45A8.65,8.65,0,0,1,251.16,63a8,8,0,0,1-2.25-3.41h-1v2.7c.57,0,1.44-.14,1.71-.14a1,1,0,0,1,1,1.1,1.07,1.07,0,0,1-.9,1.16,45.89,45.89,0,0,1-5.25.56c-1.07,0-1.07-1.13-1.07-1.27,0-1.18.91-1.21,1.87-1.27V59.59h-1.57a34.13,34.13,0,0,1-.61,3.75c-.17.7-.44,1.66-1.35,1.66-.43,0-1.59-.35-1.59-1.37a6.88,6.88,0,0,1,.46-1.9,21.47,21.47,0,0,0,.66-5.34V50.82c0-1.88.36-2.22,2.22-2.22h10.75c1.88,0,2.22.38,2.22,2.22v.62c0,2-.48,2.2-2.41,2.2a.82.82,0,0,1,.16.47Zm-7.74-.41a.77.77,0,0,1,.14-.47H243.9v2.75c0,.52,0,.77,0,1.13h2.63v-.93h-1.39c-.34,0-1.07,0-1.07-1,0-.73.21-1.1,1.07-1.1h1.39Zm-2.3-3.35c-.2,0-.31.09-.31.29v.7h9.62a.28.28,0,0,0,.3-.31v-.39a.26.26,0,0,0-.3-.29Zm4.73,3.76h2.79v-.41a.82.82,0,0,1,.14-.47h-3.11a.82.82,0,0,1,.18.47Zm2.79,2.07h-2.79v.93h2.79Zm-.25,3A4.3,4.3,0,0,0,252.69,61c.2-.2,1.06-1.21,1.27-1.43Z"/><path class="cls-3" d="M261.07,64a1,1,0,0,1-1.16,1.16c-1,0-1.32-.38-1.32-1.16V50.8c0-1.66.79-2.13,2.13-2.13H264c1.41,0,2.12.52,2.12,2.13v2.13c0,1.6-.71,2.12-2.12,2.12h-2.9Zm2.65-12.87v-.37a.31.31,0,0,0-.34-.34h-2a.31.31,0,0,0-.34.34v.37Zm0,1.52h-2.65v.72h2.31a.3.3,0,0,0,.34-.32Zm6.77,6.26a1.09,1.09,0,1,1,0,2.18h-.7v2.68c0,.32,0,1.12-1.12,1.12s-1.27-.46-1.27-1.12V61.06h-1.59c-.3,2.25-1.61,3.75-2.41,3.75A1.42,1.42,0,0,1,262,63.49c0-.36.17-.54.46-.86a3.22,3.22,0,0,0,.86-1.57h-.74a1.09,1.09,0,1,1,0-2.18h.9V57.73h-.66a1,1,0,0,1-1.06-1,1,1,0,0,1,1.13-1.07h7.34a1,1,0,0,1,1.13,1,1,1,0,0,1-1,1.07h-.56v1.15Zm-3.09,0V57.73h-1.48v1.15Zm1.68-3.83c-1.29,0-2.11-.43-2.11-2.12V50.8c0-1.68.79-2.13,2.11-2.13h3.3c1.38,0,2.13.49,2.13,2.13V62.7c0,1.91-.32,2.34-2.84,2.34-.73,0-1.82,0-1.82-1.41,0-1.22.8-1.25,1.14-1.25h.68c.34,0,.37-.16.37-.54V55.05Zm.36-3.95H272v-.37a.3.3,0,0,0-.33-.34h-1.93a.31.31,0,0,0-.34.34Zm0,1.52V53a.3.3,0,0,0,.34.32H272v-.72Z"/><text class="cls-4" transform="translate(86.19 54)"><tspan class="cls-5">手</tspan><tspan class="cls-6" x="34.98" y="0">順</tspan><tspan x="79.15" y="0">2</tspan></text><text class="cls-7" transform="translate(213.77 30.69)">図形をドラッグ・タップして視点を自由に変更することができます<tspan class="cls-8" x="720" y="0">。</tspan><tspan x="0" y="36">　　　　を押すと展開のアニメーションを確認できます</tspan><tspan class="cls-8" x="600" y="36">。</tspan></text><g id="hand_2" data-name="hand 2"><path class="cls-3" d="M42.5,56.11c-6,0-10.42-3.57-12-9.8-1.81-7.1.89-13.41,7.22-16.88,3.6-2,7.39-3.6,11.06-5.19l3-1.29a5.52,5.52,0,0,1,2.1-.41,3.73,3.73,0,0,1,3,1.16,5,5,0,0,1,.7,4.94,9.32,9.32,0,0,1-1.3,2.06H69.49a5.62,5.62,0,0,1,4.15,1.52,4.65,4.65,0,0,1,1.3,3.46c0,2.42-1.77,4.88-5.51,4.9h-6.1A4.51,4.51,0,0,1,63,42.91a4.33,4.33,0,0,1-1.54,1.83,7,7,0,0,1,0,2.28,4.59,4.59,0,0,1-1.65,2.7,4.59,4.59,0,0,1-.19,3.37c-1.31,3-4.3,3-5.57,3H50.37l-3.24,0c-1.38,0-2.76,0-4.14.06Z"/><path class="cls-9" d="M53.83,25a1.48,1.48,0,0,1,1.06.3,2.51,2.51,0,0,1,.31,2.26,6.33,6.33,0,0,1-2.11,2.58c-1.66,1.1-3.53,1.91-5.66,3H69.48c2,0,3,.87,3,2.44s-1.11,2.43-3,2.44H59.56c2.19,3,1.5,4.84-1.4,5.16A4.39,4.39,0,0,1,59,46.58c-.23,1.28-2.06,2-2.68,2.27.9.91,1.59,1.9,1,3.23s-2,1.5-3.29,1.5h-.38l-6.51,0c-1.41,0-2.81,0-4.22.06H42.5c-5.48,0-8.46-3.5-9.58-7.92-1.51-5.91.56-11.09,6-14.06,4.44-2.43,9.18-4.34,13.83-6.39a2.83,2.83,0,0,1,1.09-.2m0-5a7.92,7.92,0,0,0-3.11.62c-1,.44-2,.86-2.95,1.29-3.72,1.61-7.56,3.27-11.26,5.29C29.11,31.29,26,38.65,28.07,46.93c1.87,7.32,7.26,11.68,14.43,11.68h.57c1.19,0,2.48-.06,4.06-.06l3.22,0H54c1.46,0,5.89,0,7.86-4.49a7.29,7.29,0,0,0,.6-3.56,6.75,6.75,0,0,0,1.41-3.06A8.64,8.64,0,0,0,64,45.78a6.66,6.66,0,0,0,1.22-1.86,7,7,0,0,0,.31-.82h3.88c4.62,0,7.91-3.05,8-7.36a7.26,7.26,0,0,0-2-5.25,8,8,0,0,0-5.94-2.27H60.22a7.5,7.5,0,0,0-1.54-6.13,6.25,6.25,0,0,0-4.85-2Z"/></g></g></g></g></svg>